<?xml version="1.0" encoding="utf-8"?>
<!-- Generator: Adobe Illustrator 27.5.0, SVG Export Plug-In . SVG Version: 6.00 Build 0)  -->
<svg version="1.1" id="Capa_1" xmlns="http://www.w3.org/2000/svg" xmlns:xlink="http://www.w3.org/1999/xlink" x="0px" y="0px"
	 viewBox="0 0 2122 2122" style="enable-background:new 0 0 2122 2122;" xml:space="preserve">
<g>
	<path style="fill:#77AA65;" d="M1026.067,578.568c-59.452-361.058-444.865-288.102-444.865-288.102
		S474.814,723.32,1018.417,729.558C1018.175,672.957,1022.553,615.608,1026.067,578.568z"/>
	<path style="fill:#DC2138;" d="M1724.928,1110.941c-11.58-178.34-92.15-338.617-296.845-403.952
		c-137.942-44.028-231.191,60.023-360.139,73.084c-114.569,11.605-181.506-73.085-340.089-54.959
		c-267.417,30.565-351.658,292.44-329.606,521.728c26.972,280.446,187.588,559.342,480.589,586.28
		c60.885,5.594,69.023-24.842,123.847-48.631c67.95-29.483,127.69-3.025,189.667,24.881
		c263.002,118.413,431.903-170.685,493.415-383.352C1714.984,1325.01,1731.679,1214.906,1724.928,1110.941z"/>
	<path style="fill:#B51E2D;" d="M783.475,797.768c-88.907,52.857-148.507,132.691-166.183,236.763
		c-9.187,54.096-6.43,109.816,2.927,163.69c9.962,57.362,27.747,113.434,52.02,166.332c22.857,49.817,51.789,97.57,88.598,138.366
		c33.311,36.918,70.678,76.742,119.71,91.608c20.345,6.168,41.75,7.548,62.894,6.712c27.575-1.091,55.037-5.14,82.205-9.741
		c29.82-5.05,60.113-8.184,90.381-6.574c24.597,1.309,48.73,6.016,72.677,11.575c51.619,11.985,102.96,25.873,156.121,28.685
		c38.284,2.026,77.121-1.201,113.956-12.19c31.897-9.516,61.789-24.879,88.001-45.397c25.955-20.318,47.885-45.384,65.981-72.865
		c19.221-29.191,34.155-61.071,46.049-93.885c12.817-35.359,22.107-71.945,29.015-108.892
		c7.228-38.646,11.871-77.766,14.679-116.972c2.844-39.693,3.793-79.514,3.296-119.301c-0.294-23.547-1.153-47.083-2.418-70.599
		c11.783,40.15,18.725,82.46,21.544,125.857c6.75,103.965-9.944,214.069-39.162,315.081
		c-61.51,212.667-230.412,501.764-493.414,383.352c-61.978-27.906-121.719-54.365-189.667-24.882
		c-54.825,23.788-62.963,54.224-123.848,48.631c-293.001-26.938-453.617-305.834-480.589-586.28
		c-22.053-229.289,62.189-491.164,329.606-521.729c86.443-9.88,145.644,10.785,200.185,29.756
		c-31.311-10.891-96.311,17.053-122.685,30.738C797.88,789.488,790.584,793.542,783.475,797.768z"/>
	<path style="fill:#E74551;" d="M1377.938,794.159c-41.549-8.142-87.032-6.652-121.658,20.482
		c-102.456,80.286-13.654,225.318,76.638,270.219c86.194,42.863,241.498,45.8,260.049-63.809
		C1610.38,918.156,1488.877,815.9,1377.938,794.159z"/>
	<circle style="fill:#E74551;" cx="1574.168" cy="1163.842" r="51.353"/>
	<g>
		<path style="fill:#B51E2D;" d="M743.695,897.031c-19.389,20.786-67.969,119.963-6.778,122.078
			C784.219,1020.744,823.547,848.167,743.695,897.031z"/>
		<path style="fill:#B51E2D;" d="M773.154,1082.22c1.2,10.319-6.193,19.658-16.513,20.858c-10.319,1.2-19.657-6.193-20.857-16.513
			c-1.2-10.319,6.193-19.658,16.512-20.858C762.616,1064.507,771.954,1071.901,773.154,1082.22z"/>
		<path style="fill:#B51E2D;" d="M809.764,1236.199c1.8,15.479-9.29,29.486-24.769,31.286c-15.479,1.8-29.487-9.29-31.286-24.769
			c-1.799-15.479,9.29-29.487,24.769-31.286C793.957,1209.63,807.964,1220.719,809.764,1236.199z"/>
		<path style="fill:#B51E2D;" d="M843.803,1111.881c1.536,13.212-7.93,25.168-21.141,26.704
			c-13.212,1.536-25.169-7.929-26.705-21.141c-1.536-13.213,7.93-25.168,21.142-26.704
			C830.31,1089.204,842.267,1098.669,843.803,1111.881z"/>
		<path style="fill:#B51E2D;" d="M752.025,1146.798c1.536,13.212-7.929,25.168-21.141,26.704
			c-13.212,1.536-25.168-7.929-26.704-21.141c-1.536-13.212,7.929-25.168,21.142-26.704
			C738.533,1124.12,750.489,1133.586,752.025,1146.798z"/>
		<path style="fill:#B51E2D;" d="M812.127,984.865c-9.381,11.787-11.76,42.446-0.658,54.249
			c30.491,32.42,60.132-89.144-1.038-54.052"/>
		<path style="fill:#B51E2D;" d="M809.105,1431.538c-1.979,14.934,11.757,42.446,27.35,46.855
			c42.827,12.109,5.692-107.379-28.702-45.813"/>
		<path style="fill:#B51E2D;" d="M744.417,1302.122c-13.27,28.925,18.57,96.139,37.683,51.244
			c9.07-21.306-14.981-79.066-37.706-49.21"/>
		<path style="fill:#B51E2D;" d="M832.802,1285.779c-20.076,3.521-10.163,47.53,8.711,39.026
			C861.761,1315.681,848.515,1282.365,832.802,1285.779z"/>
		<path style="fill:#B51E2D;" d="M1197.513,1507.203c-4.007,19.985,40.599,26.722,39.526,6.049
			C1235.887,1491.073,1200.035,1491.322,1197.513,1507.203z"/>
		<path style="fill:#B51E2D;" d="M1113.06,1457.211c-13.205,22.391,37.698,49.21,45.072,23.859
			C1166.045,1453.872,1122.757,1439.139,1113.06,1457.211z"/>
		<path style="fill:#B51E2D;" d="M1292.78,1506.933c-1.224,25.966,56.311,25.919,50.998,0.057
			C1338.078,1479.244,1292.919,1486.425,1292.78,1506.933z"/>
		<path style="fill:#B51E2D;" d="M1237.301,1438.501c-0.758,16.088,34.888,16.058,31.596,0.035
			C1265.365,1421.345,1237.387,1425.795,1237.301,1438.501z"/>
	</g>
	<path style="fill:#3B8645;" d="M1020.079,660.815c-17.72-19.851-35.892-39.292-54.559-58.252c0.397-1.337,0.657-2.781,0.601-4.435
		c-1.249-37.059,0-74.231-0.169-111.305c-0.078-17.314-26.992-17.35-26.914,0c0.135,29.693-0.581,59.445-0.254,89.156
		c-14.213-13.802-28.647-27.378-43.331-40.686c-6.798-6.162-13.644-12.271-20.533-18.33c0.021-1.106-0.02-2.223-0.195-3.348
		c-5.924-38.221-11.851-76.442-17.775-114.662c-1.115-7.188-10.124-11.166-16.553-9.399c-7.672,2.109-10.516,9.344-9.399,16.554
		c4.359,28.12,8.717,56.239,13.077,84.358c-21.167-17.85-42.696-35.272-64.524-52.312c0.055-0.64,0.119-1.28,0.038-1.941
		c-4.854-39.464-9.708-78.928-14.563-118.392c-0.887-7.212-5.549-13.457-13.457-13.457c-6.583,0-14.351,6.194-13.457,13.457
		c4.006,32.566,8.011,65.133,12.017,97.699c-8.889-6.731-17.808-13.423-26.779-20.043c-34.428-25.409-69.453-49.998-104.85-74.038
		c-6.014-4.086-14.918-1.145-18.411,4.827c-3.885,6.642-1.201,14.317,4.828,18.412c43.599,29.611,86.641,60.082,128.685,91.872
		c-36.948,6.466-73.85,13.274-110.968,18.651c-7.2,1.043-11.152,10.174-9.398,16.554c2.123,7.727,9.331,10.445,16.553,9.399
		c44.374-6.428,88.435-14.937,132.638-22.413c0.029-0.005,0.053-0.021,0.083-0.026c7.318,5.713,14.601,11.471,21.846,17.278
		c15.001,12.022,29.831,24.259,44.496,36.692c-40.625,8.599-81.248,17.199-121.873,25.798c-7.113,1.506-11.241,9.849-9.398,16.554
		c2.024,7.367,9.419,10.909,16.553,9.399c46.752-9.896,93.503-19.792,140.255-29.688c23.417,20.559,46.337,41.681,68.648,63.437
		c-33.804,9.737-67.607,19.474-101.411,29.211c-16.613,4.785-9.547,30.763,7.155,25.952c38.714-11.151,77.429-22.302,116.143-33.454
		c0.275,0.279,0.558,0.552,0.833,0.831c25.214,25.561,49.504,52.016,72.927,79.225
		C1018.969,686.645,1019.457,673.51,1020.079,660.815z"/>
	<path style="fill:#773937;" d="M1170.774,417.552c-71.431-6.229-128.303,8.244-141.994,134.34
		c-7.095,65.35-33.429,336.914,40.48,355.909C1136.104,948.583,1280.04,432.937,1170.774,417.552z"/>
</g>
</svg>
