<?xml version="1.0" encoding="utf-8"?>
<!-- Generator: Adobe Illustrator 27.5.0, SVG Export Plug-In . SVG Version: 6.00 Build 0)  -->
<svg version="1.1" id="Capa_1" xmlns="http://www.w3.org/2000/svg" xmlns:xlink="http://www.w3.org/1999/xlink" x="0px" y="0px"
	 viewBox="0 0 2122 2122" style="enable-background:new 0 0 2122 2122;" xml:space="preserve">
<g>
	<path style="fill:#007BC3;" d="M1902.014,1060.66c0,464.668-376.687,841.355-841.354,841.355
		c-464.667,0-841.354-376.687-841.354-841.355c0-464.664,376.687-841.354,841.354-841.354
		C1525.327,219.306,1902.014,595.996,1902.014,1060.66"/>
	<path style="fill:#B10C21;" d="M1319.145,445.442c0,1.29-0.166,2.562-0.276,3.841c119.168,12.205,266.707,41.154,414.222,105.664
		c-105.99-140.704-255.114-247.053-427.724-299.448c-57.556,34.268-102.935,67.093-135.39,92.761
		C1258.079,365.349,1319.145,402.428,1319.145,445.442z"/>
	<path style="fill:#009FE3;" d="M802.174,445.442c0-2.628,0.307-5.225,0.755-7.805c8.01-46.147,86.372-84.185,190.815-95.776
		c-32.678-27.733-77.297-62.349-133.377-98.5c-192.348,46.978-358.794,160.021-473.833,313.8
		c147.789-65.464,295.954-95.004,415.894-107.546C802.298,448.229,802.174,446.842,802.174,445.442z"/>
	<path style="fill:#0069B4;" d="M1733.092,554.947c-147.515-64.51-295.054-93.459-414.222-105.664
		c-1.358,15.872-10.966,30.868-27.197,44.259c-5.179,4.274-10.994,8.391-17.452,12.313
		c193.37,110.724,477.503,324.637,618.72,678.485c5.951-40.37,9.075-81.655,9.075-123.68
		C1902.015,870.841,1839.13,695.724,1733.092,554.947z"/>
	<path style="fill:#684E9B;" d="M858.179,512.064c-33.067-17.276-53.558-38.867-55.749-62.419c-0.001-0.01-0.001-0.02-0.002-0.029
		c-119.94,12.542-268.105,42.082-415.894,107.546c-105.025,140.39-167.228,314.681-167.228,503.499
		c0,44.147,3.417,87.495,9.971,129.806C371.667,839.507,658.352,625.156,858.179,512.064z"/>
	<path style="fill:#FECA33;" d="M1274.22,505.855c-0.011,0.007-0.019,0.013-0.03,0.02c-25.007,15.18-59.174,27.547-99.196,35.751
		c-0.003,0-0.006,0.001-0.01,0.002c138.653,206.347,365.157,645.758,303.427,1249.495
		c219.069-125.556,376.228-346.822,414.529-606.783C1751.723,830.492,1467.59,616.579,1274.22,505.855z"/>
	<path style="fill:#8BAF26;" d="M978.647,547.14c-0.005-0.001-0.011-0.002-0.016-0.002c-47.97-6.658-89.648-18.983-120.446-35.072
		c-0.001-0.001-0.003-0.002-0.005-0.003c-199.827,113.092-486.512,327.444-628.903,678.402
		c44.242,285.666,232.188,523.826,487.642,638.322C612.036,1243,840.222,769.362,978.647,547.14z"/>
	<path style="fill:#E51A34;" d="M1174.984,541.628c-34.475,7.067-73.269,11.056-114.325,11.056c-28.679,0-56.234-1.967-82.012-5.544
		C840.222,769.362,612.036,1243,716.919,1828.788c104.951,47.04,221.283,73.226,343.741,73.226
		c152.044,0,294.664-40.342,417.751-110.891C1540.141,1187.386,1313.637,747.975,1174.984,541.628z"/>
	<path style="fill:#EA5B0C;" d="M802.93,437.637c-0.448,2.58-0.755,5.178-0.755,7.805c0,1.4,0.124,2.787,0.254,4.173
		c0.001,0.01,0.001,0.02,0.002,0.029c2.191,23.552,22.682,45.143,55.749,62.419c0.003,0,0.004,0.002,0.005,0.003
		c30.798,16.089,72.477,28.414,120.446,35.072c0.005,0,0.011,0.001,0.016,0.002c25.778,3.577,53.334,5.544,82.012,5.544
		c41.056,0,79.85-3.989,114.325-11.056c0.003-0.001,0.006-0.002,0.01-0.002c40.022-8.205,74.189-20.572,99.196-35.751
		c0.011-0.006,0.019-0.013,0.03-0.02c6.458-3.922,12.273-8.039,17.452-12.313c16.231-13.391,25.839-28.387,27.197-44.259
		c0.11-1.279,0.276-2.551,0.276-3.841c0-43.014-61.066-80.093-149.167-97.182c-33.21-6.441-70.238-10.06-109.318-10.06
		c-23.154,0-45.565,1.291-66.915,3.661C889.301,353.451,810.939,391.49,802.93,437.637z"/>
	<path style="fill:#533B8F;" d="M410.374,546.909c-5.018,2.094-10.06,4.238-15.08,6.414c-1.492,0.647-2.99,1.3-4.482,1.953
		c-0.377,0.165-0.73,0.32-1.107,0.485c-1.025,0.451-2.046,0.901-3.071,1.355c-101.238,135.278-162.728,302.009-167.081,482.926
		v0.013c-0.01,0.391-0.018,0.762-0.027,1.152c-0.001,0.034-0.002,0.081-0.003,0.116c-0.008,0.34-0.015,0.689-0.022,1.03
		c-0.002,0.08-0.003,0.148-0.005,0.228c-0.007,0.315-0.013,0.622-0.02,0.937c-0.002,0.092-0.003,0.168-0.005,0.26
		c-0.006,0.315-0.012,0.633-0.018,0.948c-0.001,0.08-0.003,0.149-0.005,0.229c-0.006,0.341-0.012,0.696-0.018,1.037
		c-0.001,0.046-0.001,0.086-0.002,0.132c-0.006,0.378-0.012,0.755-0.018,1.135c0,0.011-0.001,0.044-0.001,0.055
		c-0.012,0.795-0.023,1.599-0.034,2.394v0.005c-0.001,0.046-0.001,0.097-0.002,0.143c-0.005,0.341-0.008,0.684-0.012,1.025
		c-0.001,0.022-0.001,0.047-0.001,0.07c0,0.069-0.001,0.146-0.002,0.215c-0.003,0.29-0.007,0.568-0.009,0.859
		c-0.002,0.069-0.002,0.136-0.003,0.205c-0.001,0.057-0.001,0.128-0.002,0.185c-0.003,0.265-0.005,0.529-0.007,0.794
		c-0.001,0.127-0.002,0.251-0.003,0.378c0,0.011,0,0.011,0,0.023c-0.003,0.253-0.005,0.484-0.007,0.737
		c-0.001,0.161-0.001,0.305-0.003,0.466c-0.001,0.24-0.003,0.475-0.004,0.715c-0.001,0.149-0.002,0.309-0.003,0.458
		c-0.002,0.227-0.003,0.46-0.003,0.688c-0.001,0.058-0.001,0.132-0.001,0.19c-0.001,0.104-0.001,0.196-0.001,0.299
		c-0.001,0.24-0.002,0.47-0.003,0.711c-0.001,0.092-0.001,0.187-0.001,0.279c0,0.057,0,0.12-0.001,0.177
		c-0.001,0.241-0.001,0.507-0.001,0.747c-0.001,0.116-0.001,0.217-0.001,0.333c0,0.022,0,0.061-0.001,0.084c0,0.393,0,0.768,0,1.161
		l0,0c0,0.397,0,0.82,0.001,1.217c0,0.138,0.001,0.277,0.001,0.414c0,0.283,0.001,0.54,0.001,0.824
		c0.001,0.148,0.001,0.301,0.001,0.449c0.001,0.283,0.003,0.571,0.004,0.855c0,0.183,0.002,0.368,0.002,0.551
		c0.002,0.311,0.004,0.639,0.006,0.951c0.001,0.21,0.003,0.421,0.005,0.631c0.001,0.17,0.001,0.328,0.003,0.498
		c0.002,0.258,0.004,0.514,0.006,0.772c0.001,0.085,0.002,0.166,0.002,0.25c0.36,41.588,3.753,82.454,9.938,122.394l0,0l0,0
		c45.923-113.189,106.872-212.191,175.062-298.151c-11.683-51.923-17.804-105.558-17.804-160.409
		C386.534,668.341,394.791,606.438,410.374,546.909"/>
	<path style="fill:#F39433;" d="M1781.528,1494.697c-90.895,36.385-189.343,61.194-292.799,72.169
		c0.078,7.173,0.117,14.444,0.115,21.674c-0.016,65.264-3.301,132.827-10.433,202.583c20.524-11.763,40.51-24.369,59.901-37.766
		c0.015-0.01,0.032-0.021,0.046-0.031c0.354-0.245,0.689-0.477,1.042-0.721c0.086-0.059,0.166-0.115,0.252-0.175
		c0.315-0.219,0.594-0.413,0.909-0.632c0.143-0.099,0.279-0.195,0.422-0.294c0.265-0.184,0.526-0.366,0.791-0.551
		c0.17-0.119,0.359-0.25,0.529-0.37c0.138-0.097,0.295-0.207,0.434-0.304c0.326-0.229,0.643-0.451,0.969-0.68
		c0.075-0.053,0.139-0.097,0.214-0.151c81.033-56.965,151.549-127.853,208.086-209.21c0.158-0.227,0.303-0.436,0.461-0.663
		c0.119-0.171,0.243-0.35,0.361-0.522c0.149-0.214,0.302-0.436,0.45-0.651c0.109-0.157,0.224-0.324,0.332-0.481
		c0.192-0.278,0.398-0.577,0.589-0.855c0.049-0.071,0.096-0.14,0.146-0.211c0.243-0.355,0.493-0.718,0.736-1.073
		c0.03-0.043,0.068-0.099,0.098-0.142c9.156-13.365,17.955-27.036,26.345-40.941"/>
	<path style="fill:#699B31;" d="M404.339,892.315c-68.19,85.96-129.139,184.962-175.062,298.151l0,0
		c44.242,285.666,232.188,523.827,487.642,638.322c-18.613-103.962-26.737-204.394-26.732-300.516
		c0.004-61.878,3.372-121.943,9.481-180.042C550.442,1229.219,444.506,1070.825,404.339,892.315"/>
	<path style="fill:#BB0C1E;" d="M699.667,1348.23c-6.109,58.099-9.477,118.164-9.481,180.042
		c-0.005,96.122,8.118,196.554,26.732,300.516c99.212,44.467,208.592,70.299,323.704,72.992l0.01,0
		c0.461,0.01,0.914,0.021,1.375,0.03c0.057,0.001,0.096,0.002,0.152,0.003c0.409,0.009,0.813,0.018,1.222,0.026
		c0.113,0.003,0.166,0.004,0.278,0.005c0.372,0.007,0.751,0.015,1.124,0.022c0.113,0.002,0.201,0.003,0.314,0.005
		c0.358,0.006,0.698,0.012,1.056,0.019c0.141,0.002,0.263,0.004,0.404,0.006c0.328,0.005,0.662,0.01,0.99,0.016
		c0.141,0.002,0.296,0.005,0.438,0.007c0.312,0.005,0.621,0.009,0.933,0.013c0.169,0.002,0.327,0.004,0.497,0.006
		c0.298,0.004,0.601,0.008,0.899,0.011c0.169,0.002,0.347,0.004,0.516,0.007c0.283,0.003,0.574,0.006,0.858,0.009
		c0.198,0.002,0.362,0.004,0.56,0.006c0.283,0.003,0.565,0.005,0.849,0.008c0.17,0.001,0.378,0.003,0.548,0.005
		c0.283,0.002,0.569,0.005,0.853,0.006c0.17,0.001,0.386,0.003,0.555,0.004c0.291,0.002,0.58,0.004,0.871,0.005
		c0.198,0.001,0.331,0.002,0.528,0.003c0.306,0.001,0.598,0.002,0.904,0.003c0.17,0,0.326,0.001,0.496,0.002
		c0.343,0.001,0.689,0.002,1.033,0.002c0.113,0,0.253,0,0.366,0.001c0.471,0.001,0.935,0.002,1.406,0.002l0,0l0,0
		c0.399,0,0.802-0.001,1.201-0.001c0.102,0,0.208,0,0.31-0.001c0.399,0,0.781-0.001,1.18-0.002c0.047,0,0.092,0,0.138,0
		c0.158-0.001,0.334-0.002,0.491-0.002c0.093,0,0.155,0,0.249-0.001c0.12,0,0.226-0.001,0.347-0.001c0.055,0,0.115,0,0.17-0.001
		c0.13-0.001,0.244-0.001,0.374-0.002c0.278-0.001,0.535-0.003,0.813-0.005c0.019,0,0.05,0,0.068,0c0.009,0,0.028,0,0.038,0
		c0.083,0,0.157,0,0.24-0.001c0.102,0,0.197-0.001,0.299-0.002c0.112-0.001,0.217-0.001,0.328-0.002
		c0.121-0.001,0.255-0.002,0.375-0.003c0.009,0,0.009,0,0.019,0c0.168-0.002,0.333-0.003,0.5-0.004
		c0.158-0.001,0.307-0.003,0.464-0.004c0.131-0.001,0.289-0.003,0.42-0.004c0.019,0,0.052,0,0.071,0
		c0.074-0.001,0.142-0.001,0.216-0.003c0.065,0,0.122-0.001,0.187-0.001c0.149-0.001,0.274-0.002,0.423-0.004
		c0.139-0.001,0.274-0.003,0.413-0.004c0.019-0.001,0.049-0.001,0.068-0.001c0.131-0.001,0.276-0.003,0.406-0.004
		c0.148-0.002,0.301-0.004,0.449-0.006c0.149-0.001,0.301-0.003,0.45-0.005c0.027,0,0.044,0,0.071-0.001
		c0.102-0.001,0.198-0.002,0.3-0.003c0.009-0.001,0.038-0.001,0.047-0.001c0.149-0.002,0.321-0.004,0.469-0.006
		c0.148-0.002,0.284-0.004,0.432-0.006c0.149-0.002,0.308-0.004,0.457-0.006c0.185-0.003,0.355-0.005,0.54-0.009
		c0.111-0.001,0.226-0.004,0.339-0.005c0.036,0,0.076-0.001,0.112-0.002c0.102-0.002,0.199-0.003,0.3-0.005
		c0.047,0,0.11-0.002,0.156-0.003c0.112-0.001,0.211-0.003,0.322-0.005c0.176-0.002,0.341-0.005,0.517-0.009
		c0.018,0,0.039,0,0.057,0c0.112-0.002,0.206-0.004,0.317-0.005c0.176-0.003,0.348-0.006,0.524-0.01
		c0.13-0.002,0.24-0.004,0.37-0.007c0.046-0.001,0.08-0.001,0.126-0.002c0.12-0.003,0.235-0.005,0.356-0.007
		c0.045-0.001,0.101-0.001,0.147-0.002c0.093-0.002,0.149-0.003,0.241-0.005c0.176-0.004,0.35-0.007,0.526-0.011
		c0.055-0.001,0.123-0.003,0.178-0.004c0.056-0.001,0.124-0.002,0.181-0.004c0.222-0.005,0.46-0.01,0.682-0.015
		c0.074-0.001,0.138-0.002,0.213-0.004c0.055-0.001,0.106-0.002,0.161-0.004c0.12-0.003,0.253-0.005,0.374-0.008
		c0.045,0,0.079-0.001,0.125-0.002c0.074-0.002,0.153-0.004,0.227-0.005c0.185-0.004,0.376-0.009,0.56-0.013
		c0.046-0.001,0.072-0.002,0.119-0.003c0.055-0.002,0.151-0.004,0.207-0.005c0.24-0.006,0.485-0.012,0.725-0.018
		c0.055-0.001,0.096-0.002,0.152-0.004c0.055-0.001,0.109-0.002,0.164-0.004c0.157-0.004,0.319-0.008,0.476-0.012
		c0.064-0.001,0.13-0.003,0.194-0.005c0.019,0,0.019,0,0.038-0.001c0.194-0.005,0.384-0.01,0.578-0.016
		c0.084-0.002,0.152-0.004,0.234-0.006c0.037-0.001,0.042-0.001,0.079-0.002c0.083-0.002,0.146-0.004,0.228-0.006
		c0.276-0.008,0.552-0.016,0.829-0.023c0.175-0.005,0.348-0.009,0.524-0.015c0.24-0.007,0.487-0.014,0.726-0.021
		c0.258-0.008,0.517-0.016,0.775-0.023c0.212-0.006,0.414-0.012,0.626-0.02c0.194-0.006,0.393-0.012,0.586-0.018
		c0.23-0.007,0.474-0.016,0.703-0.023c0.277-0.009,0.539-0.017,0.816-0.027c0.175-0.006,0.37-0.013,0.544-0.019
		c0.221-0.008,0.424-0.015,0.644-0.022c0.157-0.005,0.31-0.011,0.466-0.017c0.369-0.013,0.741-0.026,1.109-0.04
		c0.138-0.005,0.277-0.01,0.416-0.015c0.772-0.029,1.546-0.059,2.318-0.09c0.101-0.004,0.203-0.008,0.304-0.012
		c0.809-0.033,1.627-0.067,2.434-0.102c0.055-0.002,0.087-0.004,0.142-0.006c138.058-6.025,267.492-45.33,380.459-110.079
		c7.132-69.756,10.417-137.32,10.433-202.583c0.002-7.23-0.037-14.501-0.115-21.674c-39.777,4.219-80.301,6.394-121.411,6.394
		C1109.409,1573.26,874.746,1487.86,699.667,1348.23"/>
	<path style="fill:#0081AC;" d="M802.174,445.442c0-2.628,0.307-5.225,0.755-7.805c-5.227,4.309-9.817,8.775-13.627,13.393
		c4.442-0.503,8.76-0.929,13.128-1.385C802.3,448.248,802.174,446.852,802.174,445.442z"/>
	<path style="fill:#00568B;" d="M1284.686,511.892c3.58-5.934,5.902-12.071,6.986-18.351c-5.188,4.28-11.011,8.405-17.483,12.333
		C1277.685,507.876,1281.134,509.824,1284.686,511.892z"/>
	<path style="fill:#533B8F;" d="M802.43,449.644c-4.368,0.456-8.686,0.882-13.128,1.385c-8.99,10.897-13.87,22.586-13.87,34.748
		c0,19.741,12.864,38.24,35.293,54.126c16.272-9.899,32.106-19.149,47.459-27.838C825.115,494.79,804.621,473.198,802.43,449.644z"
		/>
	<path style="fill:#F39433;" d="M1174.994,541.626c6.076,9.042,12.318,18.526,18.699,28.457
		c44.28-14.465,76.89-34.808,90.993-58.191c-3.553-2.069-7.001-4.017-10.497-6.018
		C1249.182,521.054,1215.016,533.421,1174.994,541.626z"/>
	<path style="fill:#699B31;" d="M858.185,512.066c-15.353,8.688-31.187,17.939-47.459,27.838
		c31.72,22.467,82.582,39.714,143.302,47.893c8.443-14.363,16.67-27.922,24.603-40.659
		C930.661,540.48,888.983,528.155,858.185,512.066z"/>
	<path style="fill:#BB0C1E;" d="M1060.659,552.684c-28.685,0-56.245-1.967-82.028-5.546c-7.933,12.737-16.16,26.296-24.603,40.659
		c25.16,3.389,52.011,5.22,79.893,5.22c60.312,0,115.796-8.569,159.772-22.933c-6.381-9.931-12.624-19.415-18.699-28.457
		C1140.517,548.694,1101.719,552.684,1060.659,552.684z"/>
	<ellipse style="fill:#F49E6B;" cx="1060.659" cy="384.439" rx="151.247" ry="34.013"/>
	<path style="fill:#CA0342;" d="M1475.26,394.346c-13.966,0.001-26.6,3.478-37.425,10.879
		c-22.63,15.469-32.131,33.551-32.238,55.401c84.218,13.494,177.498,35.746,272.221,71.756
		C1608.398,449.914,1531.109,394.341,1475.26,394.346"/>
	<path style="fill:#0081C9;" d="M1405.597,460.628c-0.221,45.282,39.899,106.728,87.134,194.568
		c133.812,108.436,271.615,256.651,366.246,452.131c4.073-81.239-4.059-174.929-24.778-270.739
		c-23.6-109.134-85.934-220.518-156.38-304.206C1583.096,496.373,1489.815,474.122,1405.597,460.628"/>
	<path style="fill:#FFE079;" d="M1492.731,655.196c30.767,57.214,64.555,125.631,92.173,208.061
		c90.477,270.055-15.599,492.46,120.33,501.963c2.682,0.188,5.309,0.28,7.924,0.28c88.885,0,138.281-107.795,145.819-258.173
		C1764.347,911.847,1626.544,763.632,1492.731,655.196"/>
</g>
</svg>
