<?xml version="1.0" encoding="UTF-8" standalone="no"?>
<!-- Created with Inkscape (http://www.inkscape.org/) -->

<svg
   version="1.1"
   id="svg2789"
   width="880"
   height="880"
   viewBox="0 0 880 880"
   sodipodi:docname="diamond-precious-stone--publicdomainvectors.org.svg"
   inkscape:version="1.2 (dc2aedaf03, 2022-05-15)"
   xmlns:inkscape="http://www.inkscape.org/namespaces/inkscape"
   xmlns:sodipodi="http://sodipodi.sourceforge.net/DTD/sodipodi-0.dtd"
   xmlns="http://www.w3.org/2000/svg"
   xmlns:svg="http://www.w3.org/2000/svg">
  <defs
     id="defs2793">
    <clipPath
       clipPathUnits="userSpaceOnUse"
       id="clipPath2805">
      <path
         d="M 0,660 H 660 V 0 H 0 Z"
         id="path2803" />
    </clipPath>
  </defs>
  <sodipodi:namedview
     id="namedview2791"
     pagecolor="#ffffff"
     bordercolor="#000000"
     borderopacity="0.25"
     inkscape:showpageshadow="2"
     inkscape:pageopacity="0.0"
     inkscape:pagecheckerboard="0"
     inkscape:deskcolor="#d1d1d1"
     showgrid="false"
     inkscape:zoom="0.95113636"
     inkscape:cx="440.52569"
     inkscape:cy="440.52569"
     inkscape:window-width="1920"
     inkscape:window-height="1017"
     inkscape:window-x="-8"
     inkscape:window-y="-8"
     inkscape:window-maximized="1"
     inkscape:current-layer="g2797">
    <inkscape:page
       x="0"
       y="0"
       id="page2795"
       width="880"
       height="880" />
  </sodipodi:namedview>
  <g
     id="g2797"
     inkscape:groupmode="layer"
     inkscape:label="Page 1"
     transform="matrix(1.3333333,0,0,-1.3333333,0,880)">
    <g
       id="g2799">
      <g
         id="g2801"
         clip-path="url(#clipPath2805)">
        <g
           id="g2807"
           transform="translate(386.501,132.3125)">
          <path
             d="m 0,0 c 115.99,0 210.588,39.327 210.588,87.542 0,48.217 -94.598,87.543 -210.588,87.543 -115.99,0 -210.591,-39.326 -210.591,-87.543 C -210.591,39.327 -115.99,0 0,0"
             style="fill:#f0f4f5;fill-opacity:1;fill-rule:evenodd;stroke:none"
             id="path2809" />
        </g>
        <g
           id="g2811"
           transform="translate(386.501,146.3994)">
          <path
             d="m 0,0 c 97.321,0 176.697,33 176.697,73.455 0,40.456 -79.376,73.454 -176.697,73.454 -97.32,0 -176.697,-32.998 -176.697,-73.454 C -176.697,33 -97.32,0 0,0"
             style="fill:#dfe6e8;fill-opacity:1;fill-rule:evenodd;stroke:none"
             id="path2813" />
        </g>
        <g
           id="g2815"
           transform="translate(386.501,158.6055)">
          <path
             d="m 0,0 c 81.151,0 147.338,27.517 147.338,61.249 0,33.735 -66.187,61.25 -147.338,61.25 -81.151,0 -147.338,-27.515 -147.338,-61.25 C -147.338,27.517 -81.151,0 0,0"
             style="fill:#c9d2d4;fill-opacity:1;fill-rule:evenodd;stroke:none"
             id="path2817" />
        </g>
        <g
           id="g2819"
           transform="translate(386.501,165.8076)">
          <path
             d="m 0,0 c 71.608,0 130.016,24.278 130.016,54.047 0,29.767 -58.408,54.048 -130.016,54.048 -71.611,0 -130.013,-24.281 -130.013,-54.048 C -130.013,24.278 -71.611,0 0,0"
             style="fill:#c0c9cc;fill-opacity:1;fill-rule:evenodd;stroke:none"
             id="path2821" />
        </g>
        <g
           id="g2823"
           transform="translate(386.501,183.3369)">
          <path
             d="m 0,0 c 48.386,0 87.849,16.404 87.849,36.518 0,20.114 -39.463,36.52 -87.849,36.52 -48.385,0 -87.849,-16.406 -87.849,-36.52 C -87.849,16.404 -48.385,0 0,0"
             style="fill:#dfe6e8;fill-opacity:1;fill-rule:evenodd;stroke:none"
             id="path2825" />
        </g>
        <g
           id="g2827"
           transform="translate(294.1709,601.9277)">
          <path
             d="m 0,0 59.061,-4.318 64.569,-4.727 45.924,-44.695 51.005,-49.648 7.131,-77.091 7.768,-83.188 -46.215,-74.225 -46.546,-74.798 -77.556,-27.65 -72.739,-25.946 -66.147,28.56 -59.801,25.81 -30.176,60.855 -27.374,55.3 6.619,66.041 6.28,62.305 34.809,53.617 34.59,53.279 53.065,29.532 z"
             style="fill:#434e52;fill-opacity:1;fill-rule:evenodd;stroke:none"
             id="path2829" />
        </g>
        <g
           id="g2831"
           transform="translate(303.6592,537.2632)">
          <path
             d="m 0,0 33.939,-17.603 36.238,-18.786 15.945,-40.096 16.899,-42.509 -12.87,-47.972 -13.187,-49.32 -38.333,-32.575 -37.721,-32.154 -45.095,-1.403 -42.844,-1.375 -31.668,27.073 -29.664,25.342 -8.64,41.201 -8.217,39.069 13.667,40.34 13.359,39.354 30.107,27.932 30.506,28.333 37.851,7.424 z"
             style="fill:#787f82;fill-opacity:1;fill-rule:evenodd;stroke:none"
             id="path2833" />
        </g>
        <g
           id="g2835"
           transform="translate(385.0732,472.6094)">
          <path
             d="m 0,0 -230.905,-161.327 1.13,-5.398 29.664,-25.341 28.106,-24.028 184.867,129.16 8.745,32.594 -16.899,42.509 z m -80.352,64.106 32.877,-17.055 10.518,-5.451 -206.293,-144.131 -3.382,16.077 13.667,40.34 1.6,4.713 z"
             style="fill:#999fa1;fill-opacity:1;fill-rule:evenodd;stroke:none"
             id="path2837" />
        </g>
        <g
           id="g2839"
           transform="translate(304.5693,256.248)">
          <path
             d="M 0,0 20.716,144.094 75.61,64.368 Z"
             style="fill:#898e8f;fill-opacity:1;fill-rule:evenodd;stroke:none"
             id="path2841" />
        </g>
        <g
           id="g2843"
           transform="translate(314.832,327.6133)">
          <path
             d="M 0,0 10.453,72.729 40.868,28.557 Z"
             style="fill:#a8acad;fill-opacity:1;fill-rule:evenodd;stroke:none"
             id="path2845" />
        </g>
        <g
           id="g2847"
           transform="translate(294.1709,601.9277)">
          <path
             d="M 0,0 9.488,-64.664 123.616,-9.092 59.01,-4.36 Z"
             style="fill:#1d1f1f;fill-opacity:1;fill-rule:evenodd;stroke:none"
             id="path2849" />
        </g>
        <g
           id="g2851"
           transform="translate(373.8359,500.8745)">
          <path
             d="M 0,0 43.951,91.961 140.894,-2.334 Z"
             style="fill:#303536;fill-opacity:1;fill-rule:evenodd;stroke:none"
             id="path2853" />
        </g>
        <g
           id="g2855"
           transform="translate(406.6797,418.2695)">
          <path
             d="m 0,0 108.05,80.271 7.131,-77.092 7.768,-83.188 z"
             style="fill:#5d6769;fill-opacity:1;fill-rule:evenodd;stroke:none"
             id="path2857" />
        </g>
        <g
           id="g2859"
           transform="translate(380.623,320.9775)">
          <path
             d="M 0,0 149.006,17.283 102.791,-56.941 56.245,-131.74 Z"
             style="fill:#7d8587;fill-opacity:1;fill-rule:evenodd;stroke:none"
             id="path2861" />
        </g>
        <g
           id="g2863"
           transform="translate(436.8682,189.2373)">
          <path
             d="M 0,0 -132.299,67.011 -150.295,-53.596 Z"
             style="fill:#d7dee0;fill-opacity:1;fill-rule:evenodd;stroke:none"
             id="path2865" />
        </g>
        <g
           id="g2867"
           transform="translate(286.5732,135.6416)">
          <path
             d="M 0,0 -69.943,117.828 -125.948,54.37 -66.193,28.576 Z"
             style="fill:#bcc2c4;fill-opacity:1;fill-rule:evenodd;stroke:none"
             id="path2869" />
        </g>
        <g
           id="g2871"
           transform="translate(155.2979,305.8848)">
          <path
             d="M 0,0 5.327,-115.873 -52.223,0.282 Z"
             style="fill:#bcc2c4;fill-opacity:1;fill-rule:evenodd;stroke:none"
             id="path2873" />
        </g>
        <g
           id="g2875"
           transform="translate(115.9609,434.4756)">
          <path
             d="m 0,0 22.48,-48.32 -35.366,-79.989 6.619,66.041 z"
             style="fill:#7d8587;fill-opacity:1;fill-rule:evenodd;stroke:none"
             id="path2877" />
        </g>
        <g
           id="g2879"
           transform="translate(185.373,541.4082)">
          <path
             d="m 0,0 -19.906,-75.559 -49.506,-31.374 34.809,53.618 z"
             style="fill:#5d6769;fill-opacity:1;fill-rule:evenodd;stroke:none"
             id="path2881" />
        </g>
        <g
           id="g2883"
           transform="translate(294.1709,601.9277)">
          <path
             d="m 0,0 -68.091,-79.814 -40.707,19.295 z"
             style="fill:#303536;fill-opacity:1;fill-rule:evenodd;stroke:none"
             id="path2885" />
        </g>
        <g
           id="g2887"
           transform="translate(347.0703,234.7207)">
          <path
             d="M 0,0 51.944,43.183 33.553,86.257 -42.501,21.527 Z"
             style="fill:#303536;fill-opacity:1;fill-rule:evenodd;stroke:none"
             id="path2889" />
        </g>
        <g
           id="g2891"
           transform="translate(355.7139,510.2676)">
          <path
             d="m 0,0 -30.429,-109.926 66.693,-36.9 14.702,54.828 -32.844,82.605 z"
             style="fill:#999fa1;fill-opacity:1;fill-rule:evenodd;stroke:none"
             id="path2893" />
        </g>
        <g
           id="g2895"
           transform="translate(335.752,438.1514)">
          <path
             d="m 0,0 -10.467,-37.81 52.255,-28.913 20.399,14.252 8.741,32.589 -21.607,54.34 z"
             style="fill:#a6abad;fill-opacity:1;fill-rule:evenodd;stroke:none"
             id="path2897" />
        </g>
        <g
           id="g2899"
           transform="translate(138.4414,386.1553)">
          <path
             d="M 0,0 186.844,14.186 16.857,-80.271 Z"
             style="fill:#898e8f;fill-opacity:1;fill-rule:evenodd;stroke:none"
             id="path2901" />
        </g>
        <g
           id="g2903"
           transform="translate(276.3145,396.624)">
          <path
             d="m 0,0 -122.15,-85.344 1.133,-5.395 169.988,94.457 z m -137.873,-10.469 29.609,2.248 -26.234,-18.33 z"
             style="fill:#a8acad;fill-opacity:1;fill-rule:evenodd;stroke:none"
             id="path2905" />
        </g>
        <g
           id="g2907"
           transform="translate(380.623,320.9775)">
          <path
             d="m 0,0 -75.377,-67.043 -89.299,-2.763 -62.187,53.334 -15.319,81.65 18.408,-78.891 60.504,-51.499 86.51,2.886 z"
             style="fill:#ffffff;fill-opacity:1;fill-rule:evenodd;stroke:none"
             id="path2909" />
        </g>
        <g
           id="g2911"
           transform="translate(165.4668,465.8496)">
          <path
             d="M 0,0 159.818,-65.508 60.613,56.264 Z"
             style="fill:#999fa1;fill-opacity:1;fill-rule:evenodd;stroke:none"
             id="path2913" />
        </g>
        <g
           id="g2915"
           transform="translate(297.7754,411.6172)">
          <path
             d="M 0,0 27.51,-11.275 11.678,8.159 Z m -108.471,44.461 47.654,-19.533 37.491,26.196 -27.424,33.663 z"
             style="fill:#a6abad;fill-opacity:1;fill-rule:evenodd;stroke:none"
             id="path2917" />
        </g>
        <g
           id="g2919"
           transform="translate(413.5518,243.8496)">
          <path
             d="M 0,0 60.014,87.908 -14.537,34.054 Z"
             style="fill:#8e9394;fill-opacity:1;fill-rule:evenodd;stroke:none"
             id="path2921" />
        </g>
        <g
           id="g2923"
           transform="translate(476.1729,469.8965)">
          <path
             d="M 0,0 3.475,-41.602 -32.021,-23.79 Z"
             style="fill:#70787a;fill-opacity:1;fill-rule:evenodd;stroke:none"
             id="path2925" />
        </g>
        <g
           id="g2927"
           transform="translate(160.625,190.0117)">
          <path
             d="M 0,0 90.974,4.543 125.948,-54.37 Z"
             style="fill:#d2d9db;fill-opacity:1;fill-rule:evenodd;stroke:none"
             id="path2929" />
        </g>
        <g
           id="g2931"
           transform="translate(286.5732,135.6416)">
          <path
             d="M 0,0 60.497,99.079 150.295,53.596 Z"
             style="fill:#eff5f7;fill-opacity:1;fill-rule:evenodd;stroke:none"
             id="path2933" />
        </g>
        <g
           id="g2935"
           transform="translate(472.4355,330.9434)">
          <path
             d="M 0,0 11.591,36.993 57.193,7.317 Z"
             style="fill:#3c464a;fill-opacity:1;fill-rule:evenodd;stroke:none"
             id="path2937" />
        </g>
        <g
           id="g2939"
           transform="translate(103.0752,306.167)">
          <path
             d="m 0,0 54.117,-41.453 3.731,-74.687 z"
             style="fill:#d2d9db;fill-opacity:1;fill-rule:evenodd;stroke:none"
             id="path2941" />
        </g>
        <g
           id="g2943"
           transform="translate(436.8682,189.2373)">
          <path
             d="m 0,0 -89.798,45.483 51.944,43.183 z"
             style="fill:#5d6769;fill-opacity:1;fill-rule:evenodd;stroke:none"
             id="path2945" />
        </g>
        <g
           id="g2947"
           transform="translate(166.1113,338.0859)">
          <path
             d="m 0,0 -6.095,-29.581 28.336,-10.447 -29.58,6.097 -10.447,-28.339 6.102,29.582 -28.343,10.445 29.583,-6.098 z"
             style="fill:#ffffff;fill-opacity:1;fill-rule:evenodd;stroke:none"
             id="path2949" />
        </g>
        <g
           id="g2951"
           transform="translate(296.7744,281.4658)">
          <path
             d="m 0,0 10.175,-21.761 23.038,6.818 -21.762,-10.179 6.817,-23.036 -10.178,21.76 -23.038,-6.817 21.762,10.179 z"
             style="fill:#ffffff;fill-opacity:1;fill-rule:evenodd;stroke:none"
             id="path2953" />
        </g>
        <g
           id="g2955"
           transform="translate(380.6689,342.7061)">
          <path
             d="M 0,0 1.483,-19.76 21.244,-21.243 1.483,-22.726 0,-42.485 l -1.483,19.759 -19.758,1.483 19.758,1.483 z"
             style="fill:#ffffff;fill-opacity:1;fill-rule:evenodd;stroke:none"
             id="path2957" />
        </g>
        <g
           id="g2959"
           transform="translate(149.375,397.3154)">
          <path
             d="m 0,0 -9.392,-11.143 9.619,-10.95 -11.147,9.39 -10.946,-9.616 9.388,11.143 -9.615,10.947 11.141,-9.389 z"
             style="fill:#ffffff;fill-opacity:1;fill-rule:evenodd;stroke:none"
             id="path2961" />
        </g>
      </g>
    </g>
  </g>
</svg>
