<?xml version="1.0" encoding="UTF-8" standalone="no"?>
<!-- Created with Inkscape (http://www.inkscape.org/) -->

<svg
   xmlns:dc="http://purl.org/dc/elements/1.1/"
   xmlns:cc="http://creativecommons.org/ns#"
   xmlns:rdf="http://www.w3.org/1999/02/22-rdf-syntax-ns#"
   xmlns:svg="http://www.w3.org/2000/svg"
   xmlns="http://www.w3.org/2000/svg"
   xmlns:sodipodi="http://sodipodi.sourceforge.net/DTD/sodipodi-0.dtd"
   xmlns:inkscape="http://www.inkscape.org/namespaces/inkscape"
   width="300"
   height="299.99997"
   id="svg2"
   version="1.1"
   inkscape:version="0.48.4 r9939"
   sodipodi:docname="fan.svg">
  <defs
     id="defs4" />
  <sodipodi:namedview
     id="base"
     pagecolor="#ffffff"
     bordercolor="#666666"
     borderopacity="1.0"
     inkscape:pageopacity="0.0"
     inkscape:pageshadow="2"
     inkscape:zoom="1.4142136"
     inkscape:cx="99.245357"
     inkscape:cy="161.56021"
     inkscape:document-units="px"
     inkscape:current-layer="layer1"
     showgrid="false"
     showguides="true"
     inkscape:guide-bbox="true"
     fit-margin-top="0"
     fit-margin-left="0"
     fit-margin-right="0"
     fit-margin-bottom="0"
     inkscape:window-width="1920"
     inkscape:window-height="1012"
     inkscape:window-x="0"
     inkscape:window-y="29"
     inkscape:window-maximized="1" />
  <metadata
     id="metadata7">
    <rdf:RDF>
      <cc:Work
         rdf:about="">
        <dc:format>image/svg+xml</dc:format>
        <dc:type
           rdf:resource="http://purl.org/dc/dcmitype/StillImage" />
        <dc:title></dc:title>
      </cc:Work>
    </rdf:RDF>
  </metadata>
  <g
     inkscape:label="Layer 1"
     inkscape:groupmode="layer"
     id="layer1"
     transform="translate(-281.33053,-268.52394)">
    <path
       style="fill:#bdbec0;fill-opacity:1;stroke:none"
       d="m 445.33269,381.07825 c 0,0 6.26848,9.12958 5.17232,26.19695 -3.62509,56.443 65.81255,6.10478 52.50279,-39.29922 -3.32382,-11.33862 -17.37665,-17.15814 -26.52358,-16.7617 -16.6196,0.99757 -29.7394,7.5522 -29.7394,7.5522 z"
       id="path4003-2"
       inkscape:connector-curvature="0"
       sodipodi:nodetypes="csscc" />
    <path
       style="fill:none;stroke:#414143;stroke-width:2.99839592000000010;stroke-linecap:butt;stroke-linejoin:miter;stroke-miterlimit:4;stroke-opacity:1;stroke-dasharray:none"
       d="m 344.96493,353.83991 172.75514,30.46138"
       id="path3053-4-5-7-0-7"
       inkscape:connector-curvature="0"
       sodipodi:nodetypes="cc" />
    <path
       id="path4047-8"
       style="fill:#e6e7e9;fill-opacity:1;stroke:none"
       d="m 402.88191,543.08474 12.49332,-20.70321 6.42513,-144.92248 9.24506,0 9.24505,0 6.42513,144.92248 12.49332,20.70321 z"
       inkscape:connector-curvature="0"
       sodipodi:nodetypes="ccccccc" />
    <rect
       style="fill:#58595b;fill-opacity:1;stroke:none"
       id="rect4070"
       width="128.48277"
       height="7.4441514"
       x="367.1011"
       y="551.07977"
       ry="1.3616132" />
    <path
       sodipodi:type="arc"
       style="fill:#bdbec0;fill-opacity:1;stroke:none"
       id="path4068"
       sodipodi:cx="288.32867"
       sodipodi:cy="509.15265"
       sodipodi:rx="111.55197"
       sodipodi:ry="68.942909"
       d="m 176.7767,509.15265 a 111.55197,68.942909 0 0 1 223.10395,0 l -111.55198,0 z"
       transform="matrix(0.57533982,0,0,0.43880354,265.45553,328.5944)"
       sodipodi:start="3.1415927"
       sodipodi:end="6.2831853" />
    <path
       style="fill:#58595b;fill-opacity:1;stroke:none"
       d="m 431.35775,521.76967 c -16.13608,0 -30.8882,2.79906 -42.16494,7.43352 10.0873,6.6417 25.23789,10.86919 42.16494,10.86919 16.92705,0 32.0464,-4.22749 42.13371,-10.86919 -11.27674,-4.63446 -25.99764,-7.43352 -42.13371,-7.43352 z"
       id="path4068-4"
       inkscape:connector-curvature="0" />
    <path
       style="fill:#bdbec0;fill-opacity:1;stroke:none"
       d="m 434.63225,351.12705 c 0,0 4.77221,-9.99344 20.10107,-17.57782 50.69359,-25.08209 -27.61939,-60.04774 -60.28553,-25.81914 -8.15762,8.54782 -6.17107,23.62768 -1.25427,31.35094 9.17372,13.89422 21.41009,21.97897 21.41009,21.97897 z"
       id="path4003-2-8"
       inkscape:connector-curvature="0"
       sodipodi:nodetypes="csscc" />
    <path
       style="fill:#bdbec0;fill-opacity:1;stroke:none"
       d="m 414.05569,375.36961 c 0,0 -11.04068,0.86388 -25.27337,-8.61912 -47.06854,-31.3609 -38.19318,53.94296 7.78271,65.11836 11.48145,2.79081 23.54771,-6.46954 27.77785,-14.58923 7.44589,-14.89179 8.32931,-29.53118 8.32931,-29.53118 z"
       id="path4003"
       inkscape:connector-curvature="0"
       sodipodi:nodetypes="csscc" />
    <path
       style="fill:none;stroke:#414143;stroke-width:2.99839592000000010;stroke-linecap:butt;stroke-linejoin:miter;stroke-miterlimit:4;stroke-opacity:1;stroke-dasharray:none;fill-opacity:1"
       d="m 355.38334,412.92564 151.91831,-87.7101"
       id="path3053-4-5-7"
       inkscape:connector-curvature="0"
       sodipodi:nodetypes="cc" />
    <path
       style="fill:none;stroke:#414143;stroke-width:2.99839592000000010;stroke-linecap:butt;stroke-linejoin:miter;stroke-miterlimit:4;stroke-opacity:1;stroke-dasharray:none"
       d="m 431.3425,456.78067 0,-175.42015"
       id="path3053"
       inkscape:connector-curvature="0"
       sodipodi:nodetypes="cc" />
    <path
       style="fill:none;stroke:#414143;stroke-width:2.99839592000000010;stroke-linecap:butt;stroke-linejoin:miter;stroke-miterlimit:4;stroke-opacity:1;stroke-dasharray:none"
       d="M 401.34388,451.49111 461.34111,286.65007"
       id="path3053-4"
       inkscape:connector-curvature="0"
       sodipodi:nodetypes="cc" />
    <path
       style="fill:none;stroke:#414143;stroke-width:2.99839592000000010;stroke-linecap:butt;stroke-linejoin:miter;stroke-miterlimit:4;stroke-opacity:1;stroke-dasharray:none;fill-opacity:1"
       d="M 374.96355,436.26042 487.72145,301.88077"
       id="path3053-4-5"
       inkscape:connector-curvature="0"
       sodipodi:nodetypes="cc" />
    <path
       style="fill:none;stroke:#414143;stroke-width:2.99839592000000010;stroke-linecap:butt;stroke-linejoin:miter;stroke-miterlimit:4;stroke-opacity:1;stroke-dasharray:none"
       d="m 355.38334,325.21555 151.91832,87.71008"
       id="path3053-4-5-7-0-7-1"
       inkscape:connector-curvature="0"
       sodipodi:nodetypes="cc" />
    <path
       style="fill:none;stroke:#414143;stroke-width:2.99839592000000010;stroke-linecap:butt;stroke-linejoin:miter;stroke-miterlimit:4;stroke-opacity:1;stroke-dasharray:none"
       d="M 374.96354,301.88077 487.72146,436.26042"
       id="path3053-4-5-7-0-7-1-6"
       inkscape:connector-curvature="0"
       sodipodi:nodetypes="cc" />
    <path
       style="fill:#414143;stroke:#414143;stroke-width:2.99839592000000010;stroke-linecap:butt;stroke-linejoin:miter;stroke-miterlimit:4;stroke-opacity:1;stroke-dasharray:none;fill-opacity:1"
       d="m 401.34387,286.65006 59.99725,164.84107"
       id="path3053-4-5-7-0-7-1-6-5"
       inkscape:connector-curvature="0"
       sodipodi:nodetypes="cc" />
    <path
       style="fill:none;stroke:#414143;stroke-width:2.99839592000000010;stroke-linecap:butt;stroke-linejoin:miter;stroke-miterlimit:4;stroke-opacity:1;stroke-dasharray:none;fill-opacity:1"
       d="M 344.96493,384.3013 517.72007,353.83989"
       id="path3053-4-5-7-0"
       inkscape:connector-curvature="0"
       sodipodi:nodetypes="cc" />
    <path
       sodipodi:type="arc"
       style="fill:#414143;fill-opacity:1;stroke:none"
       id="path2996-9"
       sodipodi:cx="290.92392"
       sodipodi:cy="376.06506"
       sodipodi:rx="15.152288"
       sodipodi:ry="15.152288"
       d="m 306.07621,376.06506 a 15.152288,15.152288 0 1 1 -30.30458,0 15.152288,15.152288 0 1 1 30.30458,0 z"
       transform="matrix(1.3174934,0,0,1.3174934,48.052186,-126.26637)" />
    <path
       sodipodi:type="arc"
       style="fill:#58595b;fill-opacity:1;stroke:none"
       id="path2996"
       sodipodi:cx="290.92392"
       sodipodi:cy="376.06506"
       sodipodi:rx="15.152288"
       sodipodi:ry="15.152288"
       d="m 306.07621,376.06506 a 15.152288,15.152288 0 1 1 -30.30458,0 15.152288,15.152288 0 1 1 30.30458,0 z"
       transform="matrix(0.94057133,0,0,0.94057133,157.70782,15.480807)" />
    <path
       inkscape:connector-curvature="0"
       style="fill:#414143;fill-opacity:1;stroke:none"
       d="m 509.82425,414.51787 c 25.0294,-43.35221 10.19163,-98.81283 -33.16057,-123.84224 -43.35221,-25.02941 -98.8014,-10.14898 -123.83082,33.20323 -25.02941,43.35221 -10.17602,98.7858 33.17619,123.8152 43.35221,25.02941 98.78578,10.17603 123.8152,-33.17619 z m -5.24747,-3.02963 c -23.35373,40.44984 -75.07265,54.28503 -115.52249,30.9313 -40.44984,-23.35373 -54.32768,-75.06121 -30.97395,-115.51105 23.35372,-40.44984 75.08825,-54.31207 115.53809,-30.95834 40.44984,23.35372 54.31207,75.08825 30.95835,115.53809 z"
       id="path2996-9-2-3-8-7" />
    <g
       id="g4128"
       transform="matrix(0.99946532,0,0,0.99946532,59.950174,-9.696029)">
      <path
         transform="translate(1.5909902,0.3535534)"
         d="m 374.75,540.23718 c 0,0.75939 -2.12665,1.375 -4.75,1.375 -2.62335,0 -4.75,-0.61561 -4.75,-1.375 0,-0.75939 2.12665,-1.375 4.75,-1.375 2.62335,0 4.75,0.61561 4.75,1.375 z"
         sodipodi:ry="1.375"
         sodipodi:rx="4.75"
         sodipodi:cy="540.23718"
         sodipodi:cx="370"
         id="path4090"
         style="fill:#bdbec0;fill-opacity:1;stroke:none"
         sodipodi:type="arc" />
      <path
         transform="translate(17.59099,0.35355)"
         d="m 374.75,540.23718 c 0,0.75939 -2.12665,1.375 -4.75,1.375 -2.62335,0 -4.75,-0.61561 -4.75,-1.375 0,-0.75939 2.12665,-1.375 4.75,-1.375 2.62335,0 4.75,0.61561 4.75,1.375 z"
         sodipodi:ry="1.375"
         sodipodi:rx="4.75"
         sodipodi:cy="540.23718"
         sodipodi:cx="370"
         id="path4090-9"
         style="fill:#bdbec0;fill-opacity:1;stroke:none"
         sodipodi:type="arc" />
      <path
         transform="translate(-14.40901,0.35355)"
         d="m 374.75,540.23718 c 0,0.75939 -2.12665,1.375 -4.75,1.375 -2.62335,0 -4.75,-0.61561 -4.75,-1.375 0,-0.75939 2.12665,-1.375 4.75,-1.375 2.62335,0 4.75,0.61561 4.75,1.375 z"
         sodipodi:ry="1.375"
         sodipodi:rx="4.75"
         sodipodi:cy="540.23718"
         sodipodi:cx="370"
         id="path4090-9-2"
         style="fill:#bdbec0;fill-opacity:1;stroke:none"
         sodipodi:type="arc" />
    </g>
    <text
       xml:space="preserve"
       style="font-size:13px;font-style:normal;font-weight:normal;line-height:125%;letter-spacing:0px;word-spacing:0px;fill:#000000;fill-opacity:1;stroke:none;font-family:Sans"
       x="23.035547"
       y="220.95685"
       id="text4174"
       sodipodi:linespacing="125%"><tspan
         sodipodi:role="line"
         id="tspan4176"
         x="23.035547"
         y="220.95685">http://thumb1.shutterstock.com/display_pic_with_logo/1893473/266098874/stock-vector-vector-of-flat-icon-electric-fan-on-isolated-background-266098874.jpg</tspan></text>
  </g>
</svg>
