<?xml version="1.0" encoding="UTF-8" standalone="no"?>
<!-- Created with Inkscape (http://www.inkscape.org/) -->

<svg
   version="1.1"
   id="svg1"
   width="880"
   height="880"
   viewBox="0 0 880 880"
   sodipodi:docname="ham-food.svg"
   inkscape:version="1.3.2 (091e20e, 2023-11-25, custom)"
   xmlns:inkscape="http://www.inkscape.org/namespaces/inkscape"
   xmlns:sodipodi="http://sodipodi.sourceforge.net/DTD/sodipodi-0.dtd"
   xmlns="http://www.w3.org/2000/svg"
   xmlns:svg="http://www.w3.org/2000/svg">
  <defs
     id="defs1">
    <clipPath
       clipPathUnits="userSpaceOnUse"
       id="clipPath3">
      <path
         d="M 0,660 H 660 V 0 H 0 Z"
         transform="translate(-339.99221,-222.84961)"
         id="path3" />
    </clipPath>
    <clipPath
       clipPathUnits="userSpaceOnUse"
       id="clipPath5">
      <path
         d="M 0,660 H 660 V 0 H 0 Z"
         transform="translate(-339.98931,-447.37891)"
         id="path5" />
    </clipPath>
    <clipPath
       clipPathUnits="userSpaceOnUse"
       id="clipPath7">
      <path
         d="M 0,660 H 660 V 0 H 0 Z"
         transform="translate(-36.103001,-477.13871)"
         id="path7" />
    </clipPath>
    <clipPath
       clipPathUnits="userSpaceOnUse"
       id="clipPath9">
      <path
         d="M 0,660 H 660 V 0 H 0 Z"
         transform="translate(-36.103001,-477.13871)"
         id="path9" />
    </clipPath>
    <clipPath
       clipPathUnits="userSpaceOnUse"
       id="clipPath11">
      <path
         d="M 0,660 H 660 V 0 H 0 Z"
         transform="translate(-533.06152,-257.4268)"
         id="path11" />
    </clipPath>
    <clipPath
       clipPathUnits="userSpaceOnUse"
       id="clipPath13">
      <path
         d="M 0,660 H 660 V 0 H 0 Z"
         transform="translate(-164.74851,-502.96481)"
         id="path13" />
    </clipPath>
    <clipPath
       clipPathUnits="userSpaceOnUse"
       id="clipPath15">
      <path
         d="M 0,660 H 660 V 0 H 0 Z"
         transform="translate(-323.34231,-377.71681)"
         id="path15" />
    </clipPath>
    <clipPath
       clipPathUnits="userSpaceOnUse"
       id="clipPath17">
      <path
         d="M 0,660 H 660 V 0 H 0 Z"
         transform="translate(-437.22561,-499.04791)"
         id="path17" />
    </clipPath>
    <clipPath
       clipPathUnits="userSpaceOnUse"
       id="clipPath19">
      <path
         d="M 0,660 H 660 V 0 H 0 Z"
         transform="translate(-437.70121,-495.50491)"
         id="path19" />
    </clipPath>
    <clipPath
       clipPathUnits="userSpaceOnUse"
       id="clipPath21">
      <path
         d="M 0,660 H 660 V 0 H 0 Z"
         transform="translate(-437.70121,-495.50491)"
         id="path21" />
    </clipPath>
    <clipPath
       clipPathUnits="userSpaceOnUse"
       id="clipPath23">
      <path
         d="M 0,660 H 660 V 0 H 0 Z"
         transform="translate(-442.01861,-442.06201)"
         id="path23" />
    </clipPath>
    <clipPath
       clipPathUnits="userSpaceOnUse"
       id="clipPath25">
      <path
         d="M 0,660 H 660 V 0 H 0 Z"
         transform="translate(-436.92191,-488.96001)"
         id="path25" />
    </clipPath>
    <clipPath
       clipPathUnits="userSpaceOnUse"
       id="clipPath27">
      <path
         d="M 0,660 H 660 V 0 H 0 Z"
         transform="translate(-462.76461,-444.26171)"
         id="path27" />
    </clipPath>
    <clipPath
       clipPathUnits="userSpaceOnUse"
       id="clipPath29">
      <path
         d="M 0,660 H 660 V 0 H 0 Z"
         transform="translate(-466.81451,-435.88431)"
         id="path29" />
    </clipPath>
    <clipPath
       clipPathUnits="userSpaceOnUse"
       id="clipPath31">
      <path
         d="M 0,660 H 660 V 0 H 0 Z"
         transform="translate(-252.853,-446.40091)"
         id="path31" />
    </clipPath>
    <clipPath
       clipPathUnits="userSpaceOnUse"
       id="clipPath33">
      <path
         d="M 0,660 H 660 V 0 H 0 Z"
         transform="translate(-94.793005,-485.39651)"
         id="path33" />
    </clipPath>
  </defs>
  <sodipodi:namedview
     id="namedview1"
     pagecolor="#ffffff"
     bordercolor="#000000"
     borderopacity="0.25"
     inkscape:showpageshadow="2"
     inkscape:pageopacity="0.0"
     inkscape:pagecheckerboard="0"
     inkscape:deskcolor="#d1d1d1"
     inkscape:zoom="0.67272727"
     inkscape:cx="439.25676"
     inkscape:cy="440"
     inkscape:window-width="1440"
     inkscape:window-height="830"
     inkscape:window-x="-6"
     inkscape:window-y="-6"
     inkscape:window-maximized="1"
     inkscape:current-layer="g1">
    <inkscape:page
       x="0"
       y="0"
       inkscape:label="1"
       id="page1"
       width="880"
       height="880"
       margin="297.13333 13.702666 182.75067 12.1322"
       bleed="0" />
  </sodipodi:namedview>
  <g
     id="g1"
     inkscape:groupmode="layer"
     inkscape:label="1">
    <g
       id="group-MC0">
      <path
         id="path2"
         d="m 0,0 c 170.594,0 309.73,50.431 309.73,112.265 0,61.833 -139.136,112.264 -309.73,112.264 -170.601,0 -309.738,-50.431 -309.738,-112.264 C -309.738,50.431 -170.601,0 0,0"
         style="fill:#e1a04a;fill-opacity:1;fill-rule:evenodd;stroke:none"
         transform="matrix(1.3333333,0,0,-1.3333333,453.32293,582.8672)"
         clip-path="url(#clipPath3)" />
      <path
         id="path4"
         d="m 0,0 c 167.978,0 304.71,-48.468 309.586,-108.927 -48.307,-39.208 -156.815,-66.533 -282.944,-66.533 -167.977,0 -304.709,48.468 -309.587,108.921 C -234.638,-27.329 -126.13,0 0,0"
         style="fill:#c68736;fill-opacity:1;fill-rule:evenodd;stroke:none"
         transform="matrix(1.3333333,0,0,-1.3333333,453.31907,283.4948)"
         clip-path="url(#clipPath5)" />
      <path
         id="path6"
         d="m 0,0 c 13.325,62.117 100.591,51.696 126.733,23.503 2.149,-0.48 4.291,-0.961 6.44,-1.442 74.035,26.232 138.255,21.148 193.527,-12.472 1.618,-1.114 3.242,-2.23 4.86,-3.344 17.695,9.788 51.397,16.236 69.563,15.664 0.319,-60.822 127.513,-179.042 127.833,-239.861 -136.377,-9.868 -193.057,14.289 -216.537,38.197 -1.87,-0.448 -3.737,-0.893 -5.608,-1.337 -77.831,-16.396 -153.177,-19.556 -217.335,36.826 -1.532,-0.642 -4.278,0.62 -5.81,-0.022 -98.082,-33.479 -141.162,76.75 -87.108,138.235 z"
         style="fill:#9e412e;fill-opacity:1;fill-rule:evenodd;stroke:none"
         transform="matrix(1.3333333,0,0,-1.3333333,48.137333,243.81507)"
         clip-path="url(#clipPath7)" />
      <path
         id="path8"
         d="m 0,0 c 0.642,2.999 1.463,5.824 2.436,8.493 0.345,-18.35 15.494,-30.505 42.473,-37.714 16.128,-4.308 32.135,0.094 43.79,12.044 5.279,5.412 11.588,10.011 19.082,13.676 -3.526,-18.736 -4.812,-36.827 5.992,-47.658 27.579,-27.657 76.562,-31.547 129.392,-31.091 13.589,0.117 25.237,4.617 35.374,13.664 6.903,6.159 14.706,11.171 23.163,15.347 -0.742,-15.944 1.455,-30.974 13.01,-36.105 13.081,-5.809 28.314,-3.436 40.689,3.756 12.835,7.46 13.154,26.493 8.77,48.731 l 78.535,-29.396 c 37.241,-54.409 86.051,-114.052 86.25,-151.699 -136.377,-9.868 -193.057,14.286 -216.537,38.197 -1.87,-0.448 -3.737,-0.893 -5.608,-1.337 -77.831,-16.393 -153.177,-19.556 -217.335,36.826 -1.532,-0.642 -4.278,0.62 -5.81,-0.022 -98.081,-33.479 -141.162,76.75 -87.108,138.235 z"
         style="fill:#7f3121;fill-opacity:1;fill-rule:evenodd;stroke:none"
         transform="matrix(1.3333333,0,0,-1.3333333,48.137333,243.81507)"
         clip-path="url(#clipPath9)" />
      <path
         id="path10"
         d="m 0,0 c -113.455,-4.137 -162.987,18.009 -184.539,39.957 -1.87,-0.448 -3.737,-0.893 -5.608,-1.337 -7.496,-1.58 -14.971,-3.031 -22.412,-4.323 7.403,13.106 9.321,26.897 5.542,41.405 -3.674,14.085 -16.48,23.38 -31.01,22.504 -54.907,-3.303 -105.924,0.639 -147.361,22.427 -4.029,2.12 -8.489,2.056 -12.457,-0.183 -3.965,-2.239 -6.325,-6.02 -6.594,-10.567 -1.074,-18.014 2.507,-33.008 10.354,-45.232 -4.515,3.328 -8.985,6.916 -13.398,10.795 -1.531,-0.642 -4.278,0.62 -5.809,-0.022 -7.927,-2.705 -15.486,-4.457 -22.674,-5.388 9.551,3.546 12.726,21.439 12.483,44.113 -0.154,14.413 -9.88,26.467 -23.937,29.664 -28.995,6.596 -55.614,22.791 -58.264,63.248 1.649,2.25 3.4,4.456 5.283,6.598 l 1.706,3.001 3.909,-0.309 c 2.478,-40.826 37.736,-46.607 76.701,-48.426 8.064,1.878 13.381,7.485 16.588,15.962 -1.618,-11.008 -0.885,-20.188 5.011,-25.352 39.905,-36.479 98.858,-40.637 163.393,-35.319 13.602,1.12 24.676,9.205 29.887,21.821 0.051,0.116 0.096,0.234 0.147,0.352 0.256,-4.496 0.509,-8.992 0.764,-13.488 24.983,-15.928 54.09,-13.599 84.917,-3.641 4.598,-8.573 9.196,-17.142 13.794,-25.715 -21.576,-6.664 -44.905,-8.947 -69.865,-7.143 -4.838,0.348 -9.149,-1.362 -12.433,-4.931 -3.283,-3.571 -4.627,-8.01 -3.875,-12.803 0.844,-5.353 2.174,-10.657 3.754,-15.937 4.068,-13.621 12.637,-23.834 25.347,-30.203 C -114.359,8.32 -57.978,2.767 0,0"
         style="fill:#64251a;fill-opacity:1;fill-rule:evenodd;stroke:none"
         transform="matrix(1.3333333,0,0,-1.3333333,710.74867,536.76427)"
         clip-path="url(#clipPath11)" />
      <path
         id="path12"
         d="m 0,0 c 1.039,1.25 2.897,1.42 4.144,0.38 1.253,-1.039 1.42,-2.895 0.383,-4.145 -20.38,-24.484 -34.04,-50.535 -41.231,-78.091 -0.621,-2.373 -1.189,-4.758 -1.714,-7.155 21.647,-21.796 50.722,-33.122 84.494,-37.82 33.977,-4.729 72.686,-2.769 113.381,2.002 0.086,3.905 0.311,7.819 0.681,11.739 2.98,31.774 15.272,64.04 37.916,96.853 0.921,1.343 2.76,1.684 4.103,0.761 1.342,-0.924 1.685,-2.763 0.758,-4.105 -22.05,-31.955 -34.009,-63.286 -36.897,-94.056 -0.377,-4.012 -0.598,-8.017 -0.668,-12.013 9.458,-4.628 20.097,-7.138 33.497,-7.26 14.421,-0.13 32.017,2.493 54.694,8.191 1.583,0.398 3.185,-0.563 3.581,-2.144 0.397,-1.581 -0.562,-3.185 -2.142,-3.583 -23.176,-5.824 -41.245,-8.502 -56.164,-8.368 -13.149,0.119 -23.867,2.411 -33.447,6.649 0.576,-24.379 6.789,-48.443 18.121,-72.227 0.696,-1.47 0.07,-3.229 -1.398,-3.923 -1.47,-0.698 -3.229,-0.071 -3.926,1.397 -11.934,25.046 -18.364,50.422 -18.731,76.154 -40.903,-4.765 -79.849,-6.691 -114.171,-1.916 -33.564,4.672 -62.735,15.742 -85.054,36.77 -4.176,-23.345 -3.92,-47.75 0.614,-73.175 0.284,-1.605 -0.783,-3.134 -2.385,-3.415 -1.606,-0.285 -3.134,0.784 -3.418,2.386 -4.8,26.884 -4.928,52.685 -0.221,77.36 -28.739,1.353 -50.84,6.808 -65.614,16.794 -15.821,10.692 -23.261,26.373 -21.509,47.523 0.133,1.621 1.555,2.828 3.175,2.697 1.621,-0.132 2.829,-1.555 2.697,-3.175 -1.56,-18.831 4.99,-32.739 18.933,-42.163 13.994,-9.458 35.407,-14.593 63.53,-15.818 0.489,2.183 1.013,4.357 1.576,6.522 C -35,-51.984 -20.95,-25.169 0,0"
         style="fill:#f9cc78;fill-opacity:1;fill-rule:evenodd;stroke:none"
         transform="matrix(1.3333333,0,0,-1.3333333,219.66467,209.38027)"
         clip-path="url(#clipPath13)" />
      <path
         id="path14"
         d="m 0,0 c -36.999,-4.338 -76.782,-7.152 -113.803,-1.999 -31.834,4.431 -62.397,15.096 -85.431,38.291 l -0.633,0.634 0.192,0.876 c 0.531,2.416 1.106,4.824 1.729,7.217 7.655,29.329 22.23,55.508 41.559,78.73 0.457,0.548 0.38,1.373 -0.167,1.83 -0.55,0.456 -1.375,0.381 -1.832,-0.17 -19.581,-23.522 -34.328,-50.03 -42.083,-79.738 -0.563,-2.145 -1.08,-4.3 -1.566,-6.465 l -0.301,-1.343 -1.374,0.061 c -20.714,0.9 -46.793,4.211 -64.38,16.096 -15.371,10.391 -21.155,25.482 -19.65,43.661 0.059,0.713 -0.479,1.343 -1.193,1.4 -0.713,0.059 -1.343,-0.479 -1.402,-1.191 -1.601,-19.347 4.547,-35.048 20.793,-46.026 17.782,-12.018 43.813,-15.527 64.77,-16.514 l 1.89,-0.088 -0.356,-1.863 c -4.856,-25.468 -4.316,-51.292 0.228,-76.762 0.124,-0.711 0.802,-1.183 1.512,-1.059 0.707,0.125 1.183,0.799 1.055,1.509 -4.361,24.448 -5.001,49.26 -0.614,73.756 l 0.534,2.989 2.21,-2.083 c 23.185,-21.844 53.123,-32.02 84.155,-36.338 37.018,-5.151 76.756,-2.39 113.752,1.92 l 1.809,0.211 0.026,-1.82 c 0.377,-26.433 7.246,-51.69 18.574,-75.473 0.311,-0.646 1.084,-0.928 1.734,-0.617 0.649,0.307 0.924,1.084 0.617,1.729 C 11.412,-55.668 4.678,-31.258 4.077,-5.743 L 4.013,-3.151 6.386,-4.2 c 10.468,-4.632 21.394,-6.404 32.793,-6.507 18.386,-0.167 37.99,3.854 55.748,8.318 0.698,0.176 1.126,0.889 0.95,1.588 -0.172,0.695 -0.888,1.125 -1.585,0.949 -17.545,-4.409 -36.945,-8.404 -55.113,-8.241 -12.01,0.109 -23.354,2.12 -34.2,7.428 l -0.941,0.458 0.02,1.047 c 0.07,4.053 0.294,8.101 0.671,12.137 3.252,34.647 17.586,66.433 37.185,94.835 0.412,0.595 0.254,1.409 -0.34,1.816 -0.595,0.411 -1.41,0.256 -1.82,-0.337 C 19.898,80.507 5.413,48.324 2.123,13.218 1.762,9.353 1.538,5.477 1.452,1.597 L 1.423,0.166 Z"
         style="fill:#fddea4;fill-opacity:1;fill-rule:evenodd;stroke:none"
         transform="matrix(1.3333333,0,0,-1.3333333,431.12307,376.3776)"
         clip-path="url(#clipPath15)" />
      <path
         id="path16"
         d="m 0,0 c 44.183,6.046 110.135,-42.634 147.3,-108.732 37.168,-66.098 31.476,-124.58 -12.707,-130.631 C 90.406,-245.406 24.457,-196.728 -12.711,-130.63 -49.878,-64.532 -44.186,-6.048 0,0"
         style="fill:#7f3121;fill-opacity:1;fill-rule:evenodd;stroke:none"
         transform="matrix(1.3333333,0,0,-1.3333333,582.96747,214.6028)"
         clip-path="url(#clipPath17)" />
      <path
         id="path18"
         d="m 0,0 c -7.39,-1.012 -14.235,-3.727 -19.789,-8.79 -12.007,-10.937 -14.262,-29.166 -13.164,-44.493 1.739,-24.252 11.882,-49.413 23.689,-70.414 17.088,-30.388 41.617,-59.204 69.72,-79.949 19.303,-14.249 47.963,-29.847 72.868,-26.438 7.393,1.011 14.236,3.726 19.793,8.786 12.003,10.94 14.26,29.169 13.161,44.497 -1.739,24.251 -11.882,49.412 -23.69,70.414 C 125.5,-75.999 100.972,-47.184 72.869,-26.44 53.568,-12.192 24.905,3.409 0,0"
         style="fill:#d0a7ab;fill-opacity:1;fill-rule:evenodd;stroke:none"
         transform="matrix(1.3333333,0,0,-1.3333333,583.6016,219.3268)"
         clip-path="url(#clipPath19)" />
      <path
         id="path20"
         d="m 0,0 c -7.39,-1.012 -14.235,-3.727 -19.789,-8.79 -12.007,-10.937 -14.262,-29.166 -13.164,-44.493 1.739,-24.252 11.882,-49.413 23.689,-70.414 17.088,-30.388 41.617,-59.204 69.72,-79.949 13.056,-9.634 30.389,-19.889 47.946,-24.461 13.426,14.675 15.969,37.103 14.604,56.147 -2.306,32.152 -15.754,65.51 -31.41,93.354 C 77.108,-52.84 58.585,-27.93 37.37,-6.123 25.027,-1.162 12.074,1.651 0,0"
         style="fill:#dab7ba;fill-opacity:1;fill-rule:evenodd;stroke:none"
         transform="matrix(1.3333333,0,0,-1.3333333,583.6016,219.3268)"
         clip-path="url(#clipPath21)" />
      <path
         id="path22"
         d="m 0,0 c -3.764,-0.508 -7.338,-1.874 -10.383,-4.419 -6.573,-5.497 -8.613,-14.66 -8.818,-22.364 -0.33,-12.188 3.52,-24.835 8.415,-35.39 7.083,-15.274 17.987,-29.759 31.083,-40.183 8.995,-7.163 22.63,-15.003 35.313,-13.289 3.767,0.505 7.342,1.87 10.386,4.416 6.575,5.496 8.611,14.66 8.819,22.363 0.33,12.189 -3.523,24.837 -8.419,35.392 -7.083,15.275 -17.983,29.758 -31.08,40.185 C 26.321,-6.128 12.688,1.713 0,0"
         style="fill:#e4c2c5;fill-opacity:1;fill-rule:evenodd;stroke:none"
         transform="matrix(1.3333333,0,0,-1.3333333,589.35813,290.584)"
         clip-path="url(#clipPath23)" />
      <path
         id="path24"
         d="m 0,0 c 17.478,2.392 37.593,-8.557 51.141,-18.557 6.017,-4.443 11.801,-9.412 17.276,-14.781 -13.06,8.55 -29.967,16.295 -44.944,14.244 -5.188,-0.708 -9.99,-2.616 -13.89,-6.168 -8.427,-7.676 -10.009,-20.471 -9.238,-31.227 1.221,-17.021 8.339,-34.68 16.627,-49.419 8.334,-14.821 19.188,-29.107 31.656,-41.331 -2.185,1.432 -4.26,2.884 -6.2,4.313 -19.723,14.56 -36.939,34.782 -48.93,56.11 -8.287,14.741 -15.405,32.398 -16.626,49.419 -0.77,10.758 0.812,23.552 9.237,31.228 C -9.993,-2.616 -5.187,-0.711 0,0 m 81.127,-124.898 c 0.447,0.03 0.89,0.076 1.33,0.137 2.948,0.402 5.68,1.487 7.898,3.506 4.787,4.363 5.688,11.637 5.25,17.751 -0.694,9.677 -4.742,19.714 -9.451,28.094 -6.817,12.124 -16.605,23.62 -27.815,31.896 -2.626,1.937 -5.684,3.937 -8.966,5.677 9.614,0.672 20.384,-5.251 27.745,-10.684 11.209,-8.277 20.997,-19.773 27.815,-31.897 4.713,-8.379 8.757,-18.418 9.451,-28.093 0.438,-6.115 -0.46,-13.39 -5.249,-17.753 -2.221,-2.019 -4.947,-3.103 -7.899,-3.506 -6.552,-0.897 -13.753,1.502 -20.109,4.872 m -55.284,80.2 c 3.369,0.46 6.967,-0.21 10.444,-1.479 -1.195,-0.456 -2.301,-1.112 -3.28,-2.002 -3.695,-3.37 -4.393,-8.985 -4.054,-13.708 0.537,-7.471 3.662,-15.221 7.3,-21.692 5.263,-9.361 12.818,-18.238 21.477,-24.629 3.333,-2.458 7.57,-5.05 12,-6.667 -0.894,-0.343 -1.84,-0.573 -2.816,-0.706 -7.675,-1.05 -16.502,3.755 -22.45,8.144 -8.658,6.392 -16.214,15.27 -21.478,24.63 -3.638,6.471 -6.761,14.221 -7.298,21.693 -0.337,4.721 0.356,10.337 4.057,13.708 1.71,1.56 3.817,2.396 6.098,2.708 m -24.012,-66.509 0.349,-0.625 c 14.619,-25.994 35.601,-50.644 59.64,-68.387 16.512,-12.189 41.028,-25.536 62.333,-22.619 6.322,0.863 12.176,3.192 16.928,7.521 10.271,9.355 12.201,24.947 11.261,38.06 -1.487,20.745 -10.164,42.268 -20.266,60.231 -6.843,12.172 -15.083,24.046 -24.375,35.055 9.951,-17.836 18.444,-39.101 19.915,-59.607 0.94,-13.112 -0.992,-28.705 -11.259,-38.062 -4.755,-4.33 -10.609,-6.65 -16.931,-7.517 -21.305,-2.913 -45.82,10.428 -62.332,22.616 -12.787,9.439 -24.703,20.829 -35.263,33.334"
         style="fill:#eac5c9;fill-opacity:1;fill-rule:evenodd;stroke:none"
         transform="matrix(1.3333333,0,0,-1.3333333,582.56253,228.05333)"
         clip-path="url(#clipPath25)" />
      <path
         id="path26"
         d="M 0,0 C 3.369,0.461 6.967,-0.21 10.444,-1.479 9.249,-1.935 8.144,-2.59 7.164,-3.48 3.469,-6.851 2.771,-12.466 3.11,-17.189 c 0.537,-7.47 3.662,-15.221 7.3,-21.691 5.263,-9.361 12.819,-18.239 21.478,-24.629 3.332,-2.459 7.569,-5.051 12,-6.668 -0.895,-0.343 -1.841,-0.573 -2.817,-0.706 -7.675,-1.05 -16.502,3.756 -22.45,8.144 -8.658,6.392 -16.214,15.27 -21.477,24.631 -3.639,6.47 -6.762,14.221 -7.299,21.692 -0.337,4.721 0.356,10.337 4.057,13.708 C -4.388,-1.148 -2.28,-0.312 0,0 M 39.908,13.06 C 27.268,20.9 11.607,27.518 -2.37,25.604 c -5.188,-0.708 -9.989,-2.616 -13.89,-6.168 -8.426,-7.676 -10.008,-20.47 -9.238,-31.227 1.222,-17.02 8.339,-34.68 16.627,-49.419 8.334,-14.821 19.188,-29.107 31.656,-41.331 -2.184,1.432 -4.26,2.884 -6.2,4.313 -19.723,14.56 -36.939,34.783 -48.93,56.11 -8.287,14.741 -15.405,32.399 -16.626,49.42 -0.77,10.758 0.812,23.551 9.238,31.227 3.897,3.553 8.703,5.459 13.89,6.169 17.478,2.392 37.593,-8.557 51.141,-18.556 4.229,-3.121 8.343,-6.504 12.313,-10.103 0.772,-0.988 1.539,-1.982 2.297,-2.979 m 47.837,-86.914 c -0.796,-2.935 -2.189,-5.647 -4.453,-7.712 -2.221,-2.019 -4.947,-3.103 -7.898,-3.506 -6.553,-0.897 -13.753,1.503 -20.11,4.872 0.448,0.03 0.89,0.076 1.33,0.137 2.949,0.402 5.68,1.487 7.899,3.506 4.786,4.363 5.687,11.638 5.25,17.751 -0.695,9.678 -4.742,19.714 -9.451,28.094 C 53.494,-18.587 43.706,-7.092 32.496,1.185 29.87,3.121 26.812,5.121 23.53,6.862 33.145,7.533 43.914,1.61 51.275,-3.823 c 0.498,-0.369 0.995,-0.743 1.487,-1.124 4.915,-7.36 9.518,-14.852 13.77,-22.416 8.066,-14.341 15.541,-30.144 21.213,-46.491 m -111.757,7.346 0.349,-0.626 c 14.619,-25.994 35.602,-50.643 59.641,-68.387 15.389,-11.364 37.741,-23.725 57.955,-22.99 4.154,12.038 4.882,25.606 4.009,37.794 -0.316,4.388 -0.838,8.798 -1.544,13.213 -1.557,-2.743 -3.495,-5.26 -5.883,-7.437 -4.755,-4.33 -10.61,-6.651 -16.932,-7.518 -21.305,-2.913 -45.819,10.428 -62.332,22.616 -12.787,9.439 -24.703,20.829 -35.263,33.335"
         style="fill:#f4d3d7;fill-opacity:1;fill-rule:evenodd;stroke:none"
         transform="matrix(1.3333333,0,0,-1.3333333,617.01947,287.65107)"
         clip-path="url(#clipPath27)" />
      <path
         id="path28"
         d="m 0,0 c -0.972,-2.805 -1.145,-5.97 -0.939,-8.811 0.537,-7.471 3.662,-15.221 7.299,-21.692 5.263,-9.361 12.819,-18.238 21.478,-24.629 3.332,-2.458 7.569,-5.05 12,-6.668 -0.895,-0.342 -1.841,-0.573 -2.817,-0.705 -7.674,-1.051 -16.501,3.755 -22.45,8.144 -8.658,6.392 -16.214,15.27 -21.477,24.63 -3.639,6.471 -6.762,14.221 -7.299,21.692 -0.312,4.334 0.248,9.422 3.203,12.834 C -7.185,3.637 -3.466,1.944 0,0 m -29.607,4.986 c -0.181,-2.854 -0.136,-5.69 0.059,-8.4 1.222,-17.02 8.339,-34.68 16.627,-49.418 8.334,-14.821 19.189,-29.107 31.656,-41.332 -2.184,1.433 -4.259,2.884 -6.2,4.313 -19.722,14.561 -36.938,34.783 -48.93,56.11 -2.679,4.768 -5.236,9.839 -7.513,15.094 0.489,7.251 2.702,15.368 8.729,20.405 1.711,1.43 3.584,2.487 5.572,3.228 m 1.545,-63.117 0.349,-0.625 c 8.611,-15.315 19.432,-30.158 31.784,-43.402 8.022,-4.841 17.628,-8.544 26.743,-7.309 1.759,0.236 3.474,0.659 5.11,1.304 -10.614,4.477 -20.629,10.725 -28.723,16.698 -12.787,9.439 -24.703,20.828 -35.263,33.334"
         style="fill:#f9dee2;fill-opacity:1;fill-rule:evenodd;stroke:none"
         transform="matrix(1.3333333,0,0,-1.3333333,622.41933,298.82093)"
         clip-path="url(#clipPath29)" />
      <path
         id="path30"
         d="M 0,0 C 41.286,0 74.963,13.145 74.963,29.264 74.963,45.382 41.286,58.529 0,58.529 -41.286,58.529 -74.962,45.382 -74.962,29.264 -74.962,13.145 -41.286,0 0,0"
         style="fill:#b4523c;fill-opacity:1;fill-rule:evenodd;stroke:none"
         transform="matrix(1.3333333,0,0,-1.3333333,337.13733,284.7988)"
         clip-path="url(#clipPath31)" />
      <path
         id="path32"
         d="m 0,0 c 17.152,0 31.143,7.41 31.143,16.496 0,9.085 -13.991,16.495 -31.143,16.495 -17.151,0 -31.142,-7.41 -31.142,-16.495 C -31.142,7.41 -17.151,0 0,0"
         style="fill:#b4523c;fill-opacity:1;fill-rule:evenodd;stroke:none"
         transform="matrix(1.3333333,0,0,-1.3333333,126.39067,232.80467)"
         clip-path="url(#clipPath33)" />
    </g>
  </g>
</svg>
