<?xml version="1.0" encoding="UTF-8" standalone="no"?>
<!-- Generator: Adobe Illustrator 12.0.1, SVG Export Plug-In . SVG Version: 6.00 Build 51448)  -->

<svg
     xmlns:dc="http://purl.org/dc/elements/1.1/"
     xmlns:cc="http://creativecommons.org/ns#"
     xmlns:rdf="http://www.w3.org/1999/02/22-rdf-syntax-ns#"
     xmlns:svg="http://www.w3.org/2000/svg"
     xmlns="http://www.w3.org/2000/svg"
     xmlns:sodipodi="http://sodipodi.sourceforge.net/DTD/sodipodi-0.dtd"
     xmlns:inkscape="http://www.inkscape.org/namespaces/inkscape"
     id="Layer_1"
     xml:space="preserve"
     overflow="visible"
     viewBox="0 0 537.9 488.2"
     version="1.1"
     enable-background="new 0 0 493.202 491.234"
     inkscape:version="0.48.5 r10040"
     width="100%"
     height="100%"
     sodipodi:docname="yellow-teapot.svg"
     style="overflow:visible"><defs
         id="defs167" /><sodipodi:namedview
         pagecolor="#ffffff"
         bordercolor="#666666"
         borderopacity="1"
         objecttolerance="10"
         gridtolerance="10"
         guidetolerance="10"
         inkscape:pageopacity="0"
         inkscape:pageshadow="2"
         inkscape:window-width="1920"
         inkscape:window-height="1106"
         id="namedview165"
         showgrid="false"
         fit-margin-top="0"
         fit-margin-left="0"
         fit-margin-right="0"
         fit-margin-bottom="0"
         inkscape:zoom="1.11"
         inkscape:cx="576.6"
         inkscape:cy="214.4"
         inkscape:window-x="0"
         inkscape:window-y="32"
         inkscape:window-maximized="1"
         inkscape:current-layer="Layer_1" /><metadata
         id="metadata163"><rdf:RDF><cc:Work><dc:format>image/svg+xml</dc:format><dc:type
                     rdf:resource="http://purl.org/dc/dcmitype/StillImage" /><cc:license
                     rdf:resource="http://creativecommons.org/licenses/publicdomain/" /><dc:publisher><cc:Agent
                         rdf:about="http://openclipart.org/"><dc:title>Openclipart</dc:title></cc:Agent></dc:publisher><dc:title /><dc:date>2006-11-20T21:51:31</dc:date><dc:description>a drawing of a teapot from a US patent illustration</dc:description><dc:source>https://openclipart.org/detail/1552/teapot-by-johnny_automatic</dc:source><dc:creator><cc:Agent><dc:title>johnny_automatic</dc:title></cc:Agent></dc:creator><dc:subject><rdf:Bag><rdf:li>beverage</rdf:li><rdf:li>container</rdf:li><rdf:li>externalsource</rdf:li><rdf:li>kettle</rdf:li><rdf:li>kitchen</rdf:li><rdf:li>teapot</rdf:li><rdf:li>uspto</rdf:li><rdf:li>utensil</rdf:li></rdf:Bag></dc:subject></cc:Work><cc:License
                 rdf:about="http://creativecommons.org/licenses/publicdomain/"><cc:permits
                     rdf:resource="http://creativecommons.org/ns#Reproduction" /><cc:permits
                     rdf:resource="http://creativecommons.org/ns#Distribution" /><cc:permits
                     rdf:resource="http://creativecommons.org/ns#DerivativeWorks" /></cc:License></rdf:RDF></metadata><g
         id="g3025"><path
             inkscape:connector-curvature="0"
             id="path3955-6"
             d="M 241.2,173.7 225.4,173.6 226.2,170.4 C 227.4,166.2 226.9,157.9 225.5,154.9 224.5,152.7 224.5,152.6 226.8,153.1 232.4,154.7 247.9,154.7 253.8,153.2 257.1,152.4 259.9,151.9 260.1,152.1 260.2,152.3 259.7,154.4 258.9,156.9 257.5,161.2 257.6,167.3 259.2,172.4 259.6,173.8 259.3,174.3 258.4,174.2 257.6,174 249.8,173.8 241.2,173.7 z"
             style="fill:#cccccc;fill-opacity:1;stroke:#000000;stroke-width:3.3999;stroke-linecap:round;stroke-linejoin:round;stroke-miterlimit:4;stroke-opacity:1;stroke-dasharray:none;stroke-dashoffset:0" /><path
             id="rect3146-2"
             d="M 31.4,448.6 451.8,448.6 C 455.1,448.6 457.8,451.3 457.8,454.6 L 457.8,480.4 C 457.8,483.8 455.1,486.4 451.8,486.4 L 31.4,486.4 C 28.08,486.4 25.4,483.8 25.4,480.4 L 25.4,454.6 C 25.4,451.3 28.08,448.6 31.4,448.6 z"
             style="fill:#c8ab37;fill-opacity:1;stroke:#000000;stroke-width:3.4;stroke-linecap:round;stroke-linejoin:round;stroke-miterlimit:4;stroke-dashoffset:0;stroke-opacity:1" /><path
             inkscape:connector-curvature="0"
             id="path4054-9-6"
             d="M 456.7,177.7 C 458.7,167.4 463.7,153.6 472.7,142.1 483.7,124.6 497.7,109.3 509.7,101.6 L 510.7,100.3 508.7,107.5 C 502.7,127.4 502.7,148.7 507.7,167.8 L 509.7,172.6 500.7,173.7 C 489.7,175.2 474.7,178.1 463.7,181.3 458.7,182.4 455.7,183.1 455.7,183 455.7,183 455.7,180.7 456.7,177.7 z"
             style="fill:#c8ab37;fill-opacity:1;stroke:#000000;stroke-width:3.4;stroke-linecap:round;stroke-linejoin:round;stroke-miterlimit:4;stroke-opacity:1;stroke-dasharray:none;stroke-dashoffset:0" /><path
             inkscape:connector-curvature="0"
             id="use4324-9"
             d="M 202.4,1.7 C 170.1,2.2 135.7,10.4 105.5,27 7.6,79.83 -25.2,199.5 31.8,294.2 38.9,305.9 46.9,316.8 55.1,326.5 72.1,292.5 93.2,262.9 119.4,240.1 89.9,177.3 112.9,102.3 176.4,68.01 197.7,56.72 219.9,51.13 242.1,50.86 291.6,50.15 340.4,75 365.7,119.7 388.7,156.9 390.7,199.9 375.7,236.5 384.7,244 392.7,252.3 400.7,261.2 417.7,210.4 413.7,152.6 384.7,102.1 344.5,36.88 274.2,0.8 202.4,1.7 z"
             style="fill:#ffcc2f;fill-opacity:1;stroke:#000000;stroke-width:3.4;stroke-miterlimit:4;stroke-opacity:1;stroke-dasharray:none" /><path
             id="use4302"
             d="M 427,-150.7 455,-150.7 455,-116 427,-116 z"
             style="fill:#c8ab37;fill-opacity:1;stroke:#000000;stroke-width:3.4;stroke-linecap:round;stroke-linejoin:round;stroke-miterlimit:4;stroke-dashoffset:0;stroke-opacity:1"
             transform="matrix(0.69,0.7238,-0.724,0.6898,0,0)" /><path
             sodipodi:nodetypes="cccccc"
             inkscape:connector-curvature="0"
             id="use3922-3-3-1"
             d="M 464.7,160.6 C 449.7,164.6 434.7,174.3 420.7,188.4 L 458.7,228.9 459.7,229.5 510.7,173.6 C 498.7,162.5 484.7,155.8 464.7,160.6 z"
             style="fill:#c8ab37;fill-opacity:1;stroke:#000000;stroke-width:3.4;stroke-linecap:round;stroke-linejoin:round;stroke-miterlimit:4;stroke-opacity:1;stroke-dasharray:none;stroke-dashoffset:0" /><path
             id="rect3957-8"
             d="M 448,-198.8 535.4,-198.8 535.4,74.4 448,74.4 z"
             style="fill:#cccccc;fill-opacity:1;stroke:#000000;stroke-width:3.4;stroke-linecap:round;stroke-linejoin:round;stroke-miterlimit:4;stroke-dashoffset:0;stroke-opacity:1"
             transform="matrix(0.6899,0.7239,-0.7239,0.6899,0,0)" /><path
             id="use3922-3-7"
             d="M 275.7,149.3 C 275.7,174.4 255.3,194.8 230.2,194.8 205.1,194.8 184.7,174.4 184.7,149.3 184.7,149.3 184.7,149.3 184.7,149.3 L 230.2,149.3 z"
             inkscape:transform-center-y="33.01"
             inkscape:transform-center-x="-48.16"
             style="fill:#cccccc;fill-opacity:1;stroke:#000000;stroke-width:3.168;stroke-linecap:round;stroke-linejoin:round;stroke-miterlimit:4;stroke-dashoffset:0;stroke-opacity:1"
             transform="matrix(0.7374,0.7798,0.7797,-0.7375,201.2,147.9)" /><path
             id="rect3957-5-92"
             d="M 444.4,-204.3 542.7,-204.3 542.7,-184 444.4,-184 z"
             style="fill:#b3b3b3;fill-opacity:1;stroke:#000000;stroke-width:3.4;stroke-linecap:round;stroke-linejoin:round;stroke-miterlimit:4;stroke-dashoffset:0;stroke-opacity:1"
             transform="matrix(0.69,0.7238,-0.724,0.6898,0,0)" /><path
             id="path3916-0"
             d="M 275.7,149.3 C 275.7,174.4 255.3,194.8 230.2,194.8 205.1,194.8 184.7,174.4 184.7,149.3 184.7,124.2 205.1,103.8 230.2,103.8 255.3,103.8 275.7,124.2 275.7,149.3 z"
             style="fill:#c8ab37;fill-opacity:1;stroke:#000000;stroke-width:3.6924;stroke-linecap:round;stroke-linejoin:round;stroke-miterlimit:4;stroke-dashoffset:0;stroke-opacity:1"
             transform="matrix(0.9208,0,0,0.9208,30.5,-21.2)" /><path
             inkscape:connector-curvature="0"
             id="path4355"
             d="M 35.8,303.3 C 16.3,273.7 4.9,240.3 2.5,206.3 2,199.2 1.6,193.4 1.7,193.3 1.8,193.2 5.2,197.5 9.2,202.8 25,223.8 49.6,247.7 68.5,260.4 71.3,262.2 73.5,264.1 73.5,264.5 73.6,264.9 72.1,267.4 70.3,269.8 64.9,277.3 55.1,293.7 49.5,304.8 46.4,310.6 43.9,315.4 43.9,315.4 43.8,315.4 40.1,310 35.8,303.3 z"
             style="fill:#c8ab37;fill-opacity:1;stroke:#000000;stroke-width:3.4;stroke-linecap:round;stroke-linejoin:round;stroke-miterlimit:4;stroke-opacity:1;stroke-dasharray:none;stroke-dashoffset:0" /><path
             id="use4009-2"
             d="M 168,183.9 C 80.2,222.1 17.2,326.7 17.2,449.8 L 17.2,449.9 241.6,449.8 465.7,449.8 C 465.7,326.7 402.7,222.1 315.2,183.9 L 168,183.9 z"
             style="fill:#ffcc2f;fill-opacity:1;stroke:#000000;stroke-width:3.4;stroke-linecap:round;stroke-linejoin:round;stroke-miterlimit:4;stroke-opacity:1;stroke-dasharray:none;stroke-dashoffset:0"
             inkscape:connector-curvature="0" /><path
             inkscape:connector-curvature="0"
             id="use3922-7"
             d="M 242.4,171 C 176.6,171 123.3,185.8 123.3,203.9 123.3,204.6 123.4,205.3 123.5,206 159.2,208.6 198.9,210.1 240.5,210.1 283.7,210.1 324.5,208.5 360.7,205.7 361.7,205.1 361.7,204.5 361.7,203.9 361.7,185.8 308.1,171 242.4,171 z"
             style="fill:#ffcc2f;fill-opacity:1;stroke:#000000;stroke-width:3.4;stroke-linecap:round;stroke-linejoin:round;stroke-miterlimit:4;stroke-opacity:1;stroke-dasharray:none;stroke-dashoffset:0" /><path
             id="rect3957-5-9-9"
             d="M 426.3,-184.6 454.3,-184.6 454.3,-150 426.3,-150 z"
             style="fill:#c8ab37;fill-opacity:1;stroke:#000000;stroke-width:3.4;stroke-linecap:round;stroke-linejoin:round;stroke-miterlimit:4;stroke-dashoffset:0;stroke-opacity:1"
             transform="matrix(0.69,0.7238,-0.724,0.6898,0,0)" /></g></svg>