<?xml version="1.0" encoding="UTF-8" standalone="no"?>
<!-- Created with Inkscape (http://www.inkscape.org/) -->

<svg
   version="1.1"
   id="svg1"
   width="880"
   height="880"
   viewBox="0 0 880 880"
   sodipodi:docname="vanilla-flower-plant.svg"
   inkscape:version="1.3.2 (091e20e, 2023-11-25, custom)"
   xmlns:inkscape="http://www.inkscape.org/namespaces/inkscape"
   xmlns:sodipodi="http://sodipodi.sourceforge.net/DTD/sodipodi-0.dtd"
   xmlns="http://www.w3.org/2000/svg"
   xmlns:svg="http://www.w3.org/2000/svg">
  <defs
     id="defs1">
    <clipPath
       clipPathUnits="userSpaceOnUse"
       id="clipPath3">
      <path
         d="M 0,660 H 660 V 0 H 0 Z"
         transform="translate(-457.75491,-91.2334)"
         id="path3" />
    </clipPath>
    <clipPath
       clipPathUnits="userSpaceOnUse"
       id="clipPath5">
      <path
         d="M 0,660 H 660 V 0 H 0 Z"
         transform="translate(-367.86041,-54.162099)"
         id="path5" />
    </clipPath>
    <clipPath
       clipPathUnits="userSpaceOnUse"
       id="clipPath7">
      <path
         d="M 0,660 H 660 V 0 H 0 Z"
         transform="translate(-160.2319,-117.4873)"
         id="path7" />
    </clipPath>
    <clipPath
       clipPathUnits="userSpaceOnUse"
       id="clipPath9">
      <path
         d="M 0,660 H 660 V 0 H 0 Z"
         transform="translate(-160.2319,-117.4873)"
         id="path9" />
    </clipPath>
    <clipPath
       clipPathUnits="userSpaceOnUse"
       id="clipPath11">
      <path
         d="M 0,660 H 660 V 0 H 0 Z"
         transform="translate(-160.2319,-117.4873)"
         id="path11" />
    </clipPath>
    <clipPath
       clipPathUnits="userSpaceOnUse"
       id="clipPath13">
      <path
         d="M 0,660 H 660 V 0 H 0 Z"
         transform="translate(-110.2935,-241.73931)"
         id="path13" />
    </clipPath>
    <clipPath
       clipPathUnits="userSpaceOnUse"
       id="clipPath15">
      <path
         d="M 0,660 H 660 V 0 H 0 Z"
         transform="translate(-110.2935,-241.73931)"
         id="path15" />
    </clipPath>
    <clipPath
       clipPathUnits="userSpaceOnUse"
       id="clipPath17">
      <path
         d="M 0,660 H 660 V 0 H 0 Z"
         transform="translate(-110.2935,-241.73931)"
         id="path17" />
    </clipPath>
    <clipPath
       clipPathUnits="userSpaceOnUse"
       id="clipPath19">
      <path
         d="M 0,660 H 660 V 0 H 0 Z"
         transform="translate(-595.84672,-455.62261)"
         id="path19" />
    </clipPath>
    <clipPath
       clipPathUnits="userSpaceOnUse"
       id="clipPath21">
      <path
         d="M 0,660 H 660 V 0 H 0 Z"
         transform="translate(-595.84672,-455.62261)"
         id="path21" />
    </clipPath>
    <clipPath
       clipPathUnits="userSpaceOnUse"
       id="clipPath23">
      <path
         d="M 0,660 H 660 V 0 H 0 Z"
         transform="translate(-595.84672,-455.62261)"
         id="path23" />
    </clipPath>
    <clipPath
       clipPathUnits="userSpaceOnUse"
       id="clipPath25">
      <path
         d="M 0,660 H 660 V 0 H 0 Z"
         transform="translate(-378.59181,-652.25052)"
         id="path25" />
    </clipPath>
    <clipPath
       clipPathUnits="userSpaceOnUse"
       id="clipPath27">
      <path
         d="M 0,660 H 660 V 0 H 0 Z"
         transform="translate(-378.59081,-652.25052)"
         id="path27" />
    </clipPath>
    <clipPath
       clipPathUnits="userSpaceOnUse"
       id="clipPath29">
      <path
         d="M 0,660 H 660 V 0 H 0 Z"
         transform="translate(-378.59081,-652.25052)"
         id="path29" />
    </clipPath>
    <clipPath
       clipPathUnits="userSpaceOnUse"
       id="clipPath31">
      <path
         d="M 0,660 H 660 V 0 H 0 Z"
         transform="translate(-330.29881,-355.44631)"
         id="path31" />
    </clipPath>
    <clipPath
       clipPathUnits="userSpaceOnUse"
       id="clipPath33">
      <path
         d="M 0,660 H 660 V 0 H 0 Z"
         transform="translate(-330.29881,-355.44631)"
         id="path33" />
    </clipPath>
    <clipPath
       clipPathUnits="userSpaceOnUse"
       id="clipPath35">
      <path
         d="M 0,660 H 660 V 0 H 0 Z"
         transform="translate(-330.29881,-355.44631)"
         id="path35" />
    </clipPath>
    <clipPath
       clipPathUnits="userSpaceOnUse"
       id="clipPath37">
      <path
         d="M 0,660 H 660 V 0 H 0 Z"
         transform="translate(-330.29881,-355.44631)"
         id="path37" />
    </clipPath>
    <clipPath
       clipPathUnits="userSpaceOnUse"
       id="clipPath39">
      <path
         d="M 0,660 H 660 V 0 H 0 Z"
         transform="translate(-359.13871,-396.92721)"
         id="path39" />
    </clipPath>
    <clipPath
       clipPathUnits="userSpaceOnUse"
       id="clipPath41">
      <path
         d="M 0,660 H 660 V 0 H 0 Z"
         transform="translate(-330.29881,-355.44631)"
         id="path41" />
    </clipPath>
    <clipPath
       clipPathUnits="userSpaceOnUse"
       id="clipPath43">
      <path
         d="M 0,660 H 660 V 0 H 0 Z"
         transform="translate(-324.62401,-325.76951)"
         id="path43" />
    </clipPath>
    <clipPath
       clipPathUnits="userSpaceOnUse"
       id="clipPath45">
      <path
         d="M 0,660 H 660 V 0 H 0 Z"
         transform="translate(-333.87891,-371.94431)"
         id="path45" />
    </clipPath>
    <clipPath
       clipPathUnits="userSpaceOnUse"
       id="clipPath47">
      <path
         d="M 0,660 H 660 V 0 H 0 Z"
         transform="translate(-333.87891,-371.94431)"
         id="path47" />
    </clipPath>
    <clipPath
       clipPathUnits="userSpaceOnUse"
       id="clipPath49">
      <path
         d="M 0,660 H 660 V 0 H 0 Z"
         transform="translate(-333.87891,-371.94431)"
         id="path49" />
    </clipPath>
    <clipPath
       clipPathUnits="userSpaceOnUse"
       id="clipPath51">
      <path
         d="M 0,660 H 660 V 0 H 0 Z"
         transform="translate(-333.87891,-371.94431)"
         id="path51" />
    </clipPath>
    <clipPath
       clipPathUnits="userSpaceOnUse"
       id="clipPath53">
      <path
         d="M 0,660 H 660 V 0 H 0 Z"
         transform="translate(-333.87891,-371.94431)"
         id="path53" />
    </clipPath>
    <clipPath
       clipPathUnits="userSpaceOnUse"
       id="clipPath55">
      <path
         d="M 0,660 H 660 V 0 H 0 Z"
         transform="translate(-361.22951,-386.60551)"
         id="path55" />
    </clipPath>
    <clipPath
       clipPathUnits="userSpaceOnUse"
       id="clipPath57">
      <path
         d="M 0,660 H 660 V 0 H 0 Z"
         transform="translate(-351.70121,-377.11431)"
         id="path57" />
    </clipPath>
    <clipPath
       clipPathUnits="userSpaceOnUse"
       id="clipPath59">
      <path
         d="M 0,660 H 660 V 0 H 0 Z"
         transform="translate(-335.49511,-412.09471)"
         id="path59" />
    </clipPath>
  </defs>
  <sodipodi:namedview
     id="namedview1"
     pagecolor="#ffffff"
     bordercolor="#000000"
     borderopacity="0.25"
     inkscape:showpageshadow="2"
     inkscape:pageopacity="0.0"
     inkscape:pagecheckerboard="0"
     inkscape:deskcolor="#d1d1d1"
     inkscape:zoom="0.69318182"
     inkscape:cx="439.27869"
     inkscape:cy="440"
     inkscape:window-width="1440"
     inkscape:window-height="830"
     inkscape:window-x="-6"
     inkscape:window-y="-6"
     inkscape:window-maximized="1"
     inkscape:current-layer="g1">
    <inkscape:page
       x="0"
       y="0"
       inkscape:label="1"
       id="page1"
       width="880"
       height="880"
       margin="70.878937 85.537331 10.333333 84.054802"
       bleed="0" />
  </sodipodi:namedview>
  <g
     id="g1"
     inkscape:groupmode="layer"
     inkscape:label="1">
    <g
       id="group-MC0">
      <path
         id="path2"
         d="m 0,0 -1.03,-1.427 6.471,2.902 c 28.65,12.85 46.879,38.084 50.076,69.32 3.197,31.236 -9.542,59.64 -34.996,78.026 l -343.379,248.048 c -31.455,22.722 -38.578,66.908 -15.856,98.362 l 1.031,1.428 -6.471,-2.903 c -28.651,-12.85 -46.878,-38.083 -50.075,-69.32 -3.197,-31.237 9.542,-59.639 34.995,-78.026 L -15.855,98.361 C 15.6,75.641 22.724,31.454 0,0"
         style="fill:#663c12;fill-opacity:1;fill-rule:evenodd;stroke:none"
         transform="matrix(1.3333333,0,0,-1.3333333,610.33987,758.35547)"
         clip-path="url(#clipPath3)" />
      <path
         id="path4"
         d="m 0,0 -1.448,-1.003 7.069,0.583 c 31.294,2.585 56.88,20.316 70.289,48.708 13.409,28.393 10.846,59.417 -7.038,85.225 l -241.273,348.173 c -22.101,31.894 -14.115,75.932 17.778,98.033 l 1.448,1.003 -7.068,-0.583 c -31.294,-2.585 -56.88,-20.315 -70.289,-48.709 -13.408,-28.392 -10.847,-59.415 7.038,-85.224 L 17.778,98.033 C 39.881,66.14 31.893,22.102 0,0"
         style="fill:#4d2b08;fill-opacity:1;fill-rule:evenodd;stroke:none"
         transform="matrix(1.3333333,0,0,-1.3333333,490.48053,807.78387)"
         clip-path="url(#clipPath5)" />
      <path
         id="path6"
         d="m 0,0 c 3.074,61.404 25.426,124.148 67.785,178.128 42.36,53.98 97.99,90.609 156.901,108.196 C 221.613,224.92 199.262,162.175 156.903,108.195 114.543,54.215 58.913,17.587 0,0"
         style="fill:#3aba5c;fill-opacity:1;fill-rule:evenodd;stroke:none"
         transform="matrix(1.3333333,0,0,-1.3333333,213.64253,723.35027)"
         clip-path="url(#clipPath7)" />
      <path
         id="path8"
         d="m 0,0 c 12.381,54.101 40.278,112.493 82.638,166.472 42.361,53.981 92.443,94.962 142.048,119.852 C 212.307,232.222 184.41,173.83 142.05,119.85 99.69,65.871 49.607,24.889 0,0"
         style="fill:#2cab4e;fill-opacity:1;fill-rule:evenodd;stroke:none"
         transform="matrix(1.3333333,0,0,-1.3333333,213.64253,723.35027)"
         clip-path="url(#clipPath9)" />
      <path
         id="path10"
         d="m 0,0 c 23.802,45.139 58.507,98.187 100.866,152.169 42.361,53.979 85.637,100.303 123.82,134.155 -23.8,-45.139 -58.504,-98.19 -100.864,-152.169 C 81.462,80.174 38.186,33.852 0,0"
         style="fill:#219c42;fill-opacity:1;fill-rule:evenodd;stroke:none"
         transform="matrix(1.3333333,0,0,-1.3333333,213.64253,723.35027)"
         clip-path="url(#clipPath11)" />
      <path
         id="path12"
         d="m 0,0 c 27.77,53.814 73.373,100.976 133.349,132.13 59.977,31.154 124.785,41.341 184.781,33.114 C 290.36,111.43 244.757,64.267 184.781,33.113 124.805,1.96 59.996,-8.227 0,0"
         style="fill:#3aba5c;fill-opacity:1;fill-rule:evenodd;stroke:none"
         transform="matrix(1.3333333,0,0,-1.3333333,147.058,557.68093)"
         clip-path="url(#clipPath13)" />
      <path
         id="path14"
         d="m 0,0 c 33.141,43.475 81.944,84.473 141.922,115.626 59.976,31.155 121.583,47.505 176.208,49.618 C 284.989,121.768 236.185,80.768 176.209,49.615 116.233,18.463 54.624,2.113 0,0"
         style="fill:#2cab4e;fill-opacity:1;fill-rule:evenodd;stroke:none"
         transform="matrix(1.3333333,0,0,-1.3333333,147.058,557.68093)"
         clip-path="url(#clipPath15)" />
      <path
         id="path16"
         d="M 0,0 C 39.733,30.784 92.465,64.221 152.441,95.375 212.417,126.527 270.096,150.44 318.13,165.244 278.397,134.459 225.665,101.023 165.689,69.869 105.713,38.716 48.034,14.803 0,0"
         style="fill:#219c42;fill-opacity:1;fill-rule:evenodd;stroke:none"
         transform="matrix(1.3333333,0,0,-1.3333333,147.058,557.68093)"
         clip-path="url(#clipPath17)" />
      <path
         id="path18"
         d="m 0,0 c -27.315,-55.081 -72.842,-103.699 -133.219,-136.297 -60.379,-32.601 -126.002,-43.996 -187.041,-36.621 27.317,55.081 72.842,103.7 133.22,136.3 C -126.662,-4.019 -61.037,7.375 0,0"
         style="fill:#3aba5c;fill-opacity:1;fill-rule:evenodd;stroke:none"
         transform="matrix(1.3333333,0,0,-1.3333333,794.46227,272.5032)"
         clip-path="url(#clipPath19)" />
      <path
         id="path20"
         d="m 0,0 c -32.937,-44.671 -81.813,-87.086 -142.19,-119.684 -60.377,-32.601 -122.652,-50.2 -178.07,-53.234 32.936,44.67 81.813,87.086 142.191,119.686 C -117.691,-20.632 -55.417,-3.035 0,0"
         style="fill:#2cab4e;fill-opacity:1;fill-rule:evenodd;stroke:none"
         transform="matrix(1.3333333,0,0,-1.3333333,794.46227,272.5032)"
         clip-path="url(#clipPath21)" />
      <path
         id="path22"
         d="m 0,0 c -39.834,-31.897 -92.821,-66.697 -153.198,-99.296 -60.378,-32.599 -118.541,-57.812 -167.062,-73.621 39.834,31.896 92.821,66.696 153.199,99.296 C -106.683,-41.022 -48.52,-15.809 0,0"
         style="fill:#219c42;fill-opacity:1;fill-rule:evenodd;stroke:none"
         transform="matrix(1.3333333,0,0,-1.3333333,794.46227,272.5032)"
         clip-path="url(#clipPath23)" />
      <path
         id="path24"
         d="m 0,0 c 28.435,-53.465 41.251,-117.805 32.723,-184.851 -8.528,-67.043 -37.044,-126.124 -77.958,-170.77 -28.437,53.464 -41.254,117.805 -32.726,184.85 C -69.434,-103.726 -40.916,-44.644 0,0"
         style="fill:#3aba5c;fill-opacity:1;fill-rule:evenodd;stroke:none"
         transform="matrix(1.3333333,0,0,-1.3333333,504.78907,10.332667)"
         clip-path="url(#clipPath25)" />
      <path
         id="path26"
         d="m 0,0 c 16.877,-51.996 22.805,-115.459 14.277,-182.503 -8.528,-67.045 -30.155,-127.004 -59.513,-173.118 -16.876,51.997 -22.806,115.461 -14.279,182.504 C -50.986,-106.073 -29.357,-46.114 0,0"
         style="fill:#2cab4e;fill-opacity:1;fill-rule:evenodd;stroke:none"
         transform="matrix(1.3333333,0,0,-1.3333333,504.78773,10.332667)"
         clip-path="url(#clipPath27)" />
      <path
         id="path28"
         d="m 0,0 c 2.692,-50.191 0.164,-112.579 -8.364,-179.624 -8.528,-67.043 -21.7,-128.08 -36.872,-175.997 -2.692,50.193 -0.165,112.579 8.362,179.624 C -28.346,-108.952 -15.171,-47.919 0,0"
         style="fill:#219c42;fill-opacity:1;fill-rule:evenodd;stroke:none"
         transform="matrix(1.3333333,0,0,-1.3333333,504.78773,10.332667)"
         clip-path="url(#clipPath29)" />
      <path
         id="path30"
         d="m 0,0 c -42.902,15.079 -79.968,46.678 -100.839,91.085 -20.872,44.406 -21.547,93.109 -5.782,135.764 42.904,-15.081 79.97,-46.679 100.84,-91.086 C 15.091,91.356 15.766,42.653 0,0"
         style="fill:#ffe563;fill-opacity:1;fill-rule:evenodd;stroke:none"
         transform="matrix(1.3333333,0,0,-1.3333333,440.3984,406.0716)"
         clip-path="url(#clipPath31)" />
      <path
         id="path32"
         d="m 0,0 c -27.6,-36.144 -69.106,-61.631 -117.789,-67.759 -48.683,-6.126 -95.211,8.281 -130.906,36.455 27.6,36.143 69.107,61.631 117.789,67.76 C -82.223,42.583 -35.695,28.174 0,0"
         style="fill:#ffe563;fill-opacity:1;fill-rule:evenodd;stroke:none"
         transform="matrix(1.3333333,0,0,-1.3333333,440.3984,406.0716)"
         clip-path="url(#clipPath33)" />
      <path
         id="path34"
         d="m 0,0 c 25.845,-37.418 37.259,-84.77 28.041,-132.964 -9.216,-48.194 -37.295,-87.991 -75.123,-113.232 -25.844,37.418 -37.258,84.768 -28.042,132.962 C -65.907,-65.039 -37.827,-25.242 0,0"
         style="fill:#ffe563;fill-opacity:1;fill-rule:evenodd;stroke:none"
         transform="matrix(1.3333333,0,0,-1.3333333,440.3984,406.0716)"
         clip-path="url(#clipPath35)" />
      <path
         id="path36"
         d="M 0,0 C 1.085,45.461 19.683,90.478 55.467,124.049 91.25,157.622 137.361,173.314 182.8,171.501 181.715,126.039 163.116,81.023 127.332,47.449 91.549,13.877 45.439,-1.815 0,0"
         style="fill:#ffe563;fill-opacity:1;fill-rule:evenodd;stroke:none"
         transform="matrix(1.3333333,0,0,-1.3333333,440.3984,406.0716)"
         clip-path="url(#clipPath37)" />
      <path
         id="path38"
         d="M 0,0 C 10.327,9.21 23.102,23.239 35.815,39.838 48.528,56.439 58.742,72.43 64.942,84.802 54.613,75.589 41.839,61.562 29.126,44.961 16.414,28.361 6.199,12.373 0,0 m 19.523,-56.092 c 11.952,-6.975 29.241,-14.791 48.957,-21.751 19.717,-6.959 38.08,-11.735 51.763,-13.808 -11.951,6.978 -29.24,14.791 -48.956,21.751 -19.719,6.962 -38.081,11.735 -51.764,13.808 M 9.379,-74.525 c 12.289,-6.363 28.141,-16.79 44.57,-29.721 16.43,-12.933 30.289,-25.891 39.361,-36.343 -12.289,6.365 -28.142,16.79 -44.572,29.721 -16.429,12.935 -30.288,25.894 -39.359,36.343 m -37.167,-17.468 c -2.942,-13.523 -5.032,-32.381 -5.56,-53.283 -0.528,-20.902 0.608,-39.841 2.865,-53.496 2.942,13.524 5.03,32.38 5.558,53.282 0.527,20.903 -0.607,39.843 -2.863,53.497 m -20.666,3.955 c -2.256,-13.656 -7.272,-31.954 -14.494,-51.578 -7.222,-19.621 -15.266,-36.806 -22.402,-48.664 2.256,13.656 7.272,31.953 14.495,51.574 7.223,19.624 15.265,36.807 22.401,48.668 m -28.101,29.946 c -13.768,-1.379 -32.349,-5.22 -52.391,-11.177 -20.043,-5.958 -37.704,-12.891 -49.993,-19.256 13.769,1.381 32.351,5.223 52.394,11.18 20.041,5.957 37.703,12.889 49.99,19.253 m -2.625,20.877 c -13.682,-2.074 -32.636,-2.957 -53.53,-2.152 -20.893,0.804 -39.722,3.144 -53.205,6.265 13.683,2.075 32.637,2.959 53.53,2.152 20.892,-0.805 39.721,-3.143 53.205,-6.265 m 19.8,35.978 c -5.568,12.67 -14.962,29.155 -26.822,46.375 -11.859,17.22 -23.91,31.875 -33.761,41.595 C -114.394,74.064 -105,57.58 -93.141,40.359 -81.28,23.14 -69.231,8.483 -59.38,-1.237 m 19.043,8.951 c -6.202,12.372 -12.899,30.124 -18.59,50.243 -5.69,20.12 -9.285,38.751 -10.481,52.537 6.2,-12.371 12.898,-30.124 18.588,-50.244 5.692,-20.118 9.285,-38.75 10.483,-52.536 M 14.395,-15.347 C 24.245,-5.624 39.06,6.23 56.434,17.861 73.813,29.489 90.42,38.665 103.162,44.064 93.313,34.343 78.498,22.488 61.122,10.859 43.745,-0.77 27.138,-9.946 14.395,-15.347"
         style="fill:#e6cf5f;fill-opacity:1;fill-rule:evenodd;stroke:none"
         transform="matrix(1.3333333,0,0,-1.3333333,478.8516,350.76373)"
         clip-path="url(#clipPath39)" />
      <path
         id="path40"
         d="m 0,0 c 43.572,13.015 92.132,9.239 135.12,-14.419 42.987,-23.658 72.16,-62.662 84.476,-106.437 -43.571,-13.017 -92.132,-9.242 -135.119,14.418 C 41.49,-82.781 12.316,-43.776 0,0"
         style="fill:#ffe563;fill-opacity:1;fill-rule:evenodd;stroke:none"
         transform="matrix(1.3333333,0,0,-1.3333333,440.3984,406.0716)"
         clip-path="url(#clipPath41)" />
      <path
         id="path42"
         d="m 0,0 c 0.001,-24.645 -3.502,-58.256 -10.496,-94.83 -6.997,-36.577 -16.14,-69.108 -25.237,-92.016 0,24.647 3.502,58.257 10.498,94.832 C -18.241,-55.436 -9.095,-22.906 0,0 m -24.301,25.903 c -23.44,-7.616 -56.488,-14.671 -93.435,-19.32 -36.948,-4.653 -70.713,-6.006 -95.308,-4.436 23.44,7.618 56.487,14.671 93.435,19.322 36.946,4.652 70.713,6.006 95.308,4.434 m 17.125,31.116 c -14.488,19.939 -31.408,49.187 -47.249,82.89 -15.84,33.702 -27.563,65.395 -33.669,89.274 14.488,-19.938 31.41,-49.189 47.249,-82.89 15.839,-33.704 27.562,-65.397 33.669,-89.274 m 34.884,-6.672 c 14.485,19.941 37.076,45.071 64.233,70.552 27.158,25.479 53.677,46.421 74.5,59.607 -14.485,-19.94 -37.074,-45.072 -64.233,-70.551 C 75.052,84.475 48.531,63.533 27.708,50.347 M 32.144,15.109 C 55.585,7.492 86.466,-6.225 119.09,-24.18 c 32.624,-17.954 60.737,-36.705 79.714,-52.433 -23.442,7.615 -54.325,21.332 -86.947,39.288 -32.627,17.954 -60.74,36.706 -79.713,52.434"
         style="fill:#dbc555;fill-opacity:1;fill-rule:evenodd;stroke:none"
         transform="matrix(1.3333333,0,0,-1.3333333,432.832,445.64067)"
         clip-path="url(#clipPath43)" />
      <path
         id="path44"
         d="m 0,0 c -25.182,-12.083 -55.002,-14.456 -83.354,-4.235 -28.351,10.22 -49.796,31.08 -61.474,56.451 25.182,12.085 55.004,14.458 83.355,4.238 C -33.122,46.232 -11.676,25.373 0,0"
         style="fill:#fff5c4;fill-opacity:1;fill-rule:evenodd;stroke:none"
         transform="matrix(1.3333333,0,0,-1.3333333,445.17187,384.07427)"
         clip-path="url(#clipPath45)" />
      <path
         id="path46"
         d="m 0,0 c 3.712,-27.684 -3.246,-56.779 -21.729,-80.583 -18.481,-23.805 -44.946,-37.756 -72.686,-41.021 -3.71,27.685 3.247,56.78 21.73,80.584 C -54.203,-17.215 -27.738,-3.265 0,0"
         style="fill:#fff5c4;fill-opacity:1;fill-rule:evenodd;stroke:none"
         transform="matrix(1.3333333,0,0,-1.3333333,445.17187,384.07427)"
         clip-path="url(#clipPath47)" />
      <path
         id="path48"
         d="m 0,0 c 27.476,-5.026 52.998,-20.634 69.926,-45.566 16.928,-24.936 22.017,-54.415 16.551,-81.806 -27.474,5.026 -52.998,20.634 -69.924,45.567 C -0.377,-56.872 -5.465,-27.391 0,0"
         style="fill:#fff5c4;fill-opacity:1;fill-rule:evenodd;stroke:none"
         transform="matrix(1.3333333,0,0,-1.3333333,445.17187,384.07427)"
         clip-path="url(#clipPath49)" />
      <path
         id="path50"
         d="m 0,0 c -19.272,20.216 -30.747,47.845 -29.785,77.967 0.96,30.121 14.171,56.963 34.693,75.91 C 24.18,133.662 35.655,106.032 34.694,75.911 33.733,45.789 20.523,18.947 0,0"
         style="fill:#fff5c4;fill-opacity:1;fill-rule:evenodd;stroke:none"
         transform="matrix(1.3333333,0,0,-1.3333333,445.17187,384.07427)"
         clip-path="url(#clipPath51)" />
      <path
         id="path52"
         d="m 0,0 c 13.27,24.576 36.002,44.027 64.947,52.421 28.945,8.395 58.555,4.127 82.914,-9.537 C 134.592,18.307 111.862,-1.143 82.917,-9.538 53.972,-17.932 24.362,-13.662 0,0"
         style="fill:#fff5c4;fill-opacity:1;fill-rule:evenodd;stroke:none"
         transform="matrix(1.3333333,0,0,-1.3333333,445.17187,384.07427)"
         clip-path="url(#clipPath53)" />
      <path
         id="path54"
         d="M 0,0 C 8.221,2.16 19.124,6.275 30.709,11.814 42.296,17.355 52.344,23.256 59.188,28.299 50.966,26.138 40.064,22.023 28.478,16.483 16.891,10.944 6.842,5.042 0,0 m -4.957,-36.141 c 4.597,-7.151 11.879,-16.249 20.728,-25.555 8.85,-9.309 17.569,-17.04 24.477,-21.991 -4.596,7.151 -11.877,16.248 -20.725,25.556 -8.851,9.308 -17.57,17.039 -24.48,21.99 m -10.69,-7.26 c 4.95,-6.909 10.718,-17.035 16.104,-28.694 5.384,-11.657 9.354,-22.614 11.406,-30.863 -4.95,6.908 -10.717,17.035 -16.105,28.692 -5.385,11.659 -9.355,22.616 -11.405,30.865 m -25.211,0.805 c -5.382,-6.581 -11.785,-16.318 -17.902,-27.61 -6.116,-11.292 -10.776,-21.974 -13.35,-30.073 5.383,6.58 11.784,16.315 17.902,27.607 6.116,11.293 10.776,21.975 13.35,30.076 m -10.208,7.926 c -5.041,-6.845 -12.89,-15.46 -22.314,-24.184 -9.423,-8.725 -18.617,-15.885 -25.827,-20.385 5.041,6.843 12.888,15.458 22.311,24.183 9.423,8.724 18.619,15.886 25.83,20.386 m -7.027,24.225 c -7.92,3.083 -19.16,6.163 -31.79,8.491 -12.629,2.33 -24.227,3.459 -32.727,3.402 7.92,-3.083 19.16,-6.161 31.79,-8.491 12.63,-2.329 24.228,-3.458 32.727,-3.402 m 4.384,12.157 c -8.067,2.681 -18.686,7.481 -29.894,13.747 -11.21,6.268 -20.862,12.797 -27.37,18.265 8.066,-2.679 18.685,-7.481 29.894,-13.747 11.21,-6.267 20.861,-12.797 27.37,-18.265 m 20.868,14.168 c 0.487,8.487 -0.058,20.128 -1.747,32.857 -1.688,12.732 -4.197,24.113 -6.878,32.178 -0.485,-8.485 0.06,-20.126 1.748,-32.858 1.688,-12.73 4.198,-24.111 6.877,-32.177 m 12.917,-0.412 c 0.057,8.499 1.341,20.083 3.837,32.68 2.496,12.598 5.725,23.795 8.912,31.674 -0.053,-8.5 -1.34,-20.082 -3.835,-32.68 -2.497,-12.597 -5.725,-23.794 -8.914,-31.674 M 3.6,-12.413 c 8.101,2.574 19.514,4.931 32.265,6.451 12.753,1.517 24.4,1.908 32.878,1.31 -8.1,-2.574 -19.513,-4.931 -32.265,-6.451 -12.753,-1.519 -24.4,-1.908 -32.878,-1.31"
         style="fill:#ffec8c;fill-opacity:1;fill-rule:evenodd;stroke:none"
         transform="matrix(1.3333333,0,0,-1.3333333,481.63933,364.526)"
         clip-path="url(#clipPath55)" />
      <path
         id="path56"
         d="m 0,0 c 13.489,6.872 32.859,14.327 54.825,20.698 21.968,6.371 42.32,10.437 57.394,11.848 C 98.73,25.672 79.36,18.218 57.393,11.847 35.425,5.475 15.074,1.409 0,0 M -7.399,-20.522 C 3.307,-31.226 16.382,-47.346 29.229,-66.267 42.077,-85.19 52.233,-103.29 58.232,-117.189 47.527,-106.486 34.453,-90.368 21.605,-71.444 8.757,-52.521 -1.399,-34.42 -7.399,-20.522 m -21.803,0.694 c -6.872,-13.487 -18.161,-30.902 -32.187,-48.97 -14.026,-18.065 -28.103,-33.318 -39.468,-43.318 6.872,13.487 18.161,30.903 32.188,48.97 14.026,18.066 28.101,33.319 39.467,43.318 m -6.075,20.952 c -14.953,2.369 -35.005,7.723 -56.522,15.48 -21.516,7.757 -40.372,16.43 -53.395,24.151 14.953,-2.369 35.005,-7.724 56.521,-15.481 21.517,-7.757 40.373,-16.43 53.396,-24.15 m 18.047,12.253 c -2.369,14.952 -3.474,35.678 -2.744,58.539 0.73,22.86 3.151,43.474 6.467,58.244 2.369,-14.952 3.473,-35.677 2.744,-58.539 -0.727,-22.859 -3.149,-43.475 -6.467,-58.244"
         style="fill:#f5df70;fill-opacity:1;fill-rule:evenodd;stroke:none"
         transform="matrix(1.3333333,0,0,-1.3333333,468.93493,377.18093)"
         clip-path="url(#clipPath57)" />
      <path
         id="path58"
         d="m 0,0 8.834,-7.187 11.243,1.806 4.059,-10.64 10.64,-4.059 -1.804,-11.243 7.185,-8.835 -7.185,-8.835 1.804,-11.243 -10.64,-4.059 -4.059,-10.64 -11.243,1.807 -8.834,-7.186 -8.835,7.186 -11.244,-1.807 -4.058,10.64 -10.641,4.059 1.806,11.243 -7.186,8.835 7.186,8.835 -1.806,11.243 10.641,4.059 4.058,10.64 11.244,-1.806 z"
         style="fill:#f0d138;fill-opacity:1;fill-rule:evenodd;stroke:none"
         transform="matrix(1.3333333,0,0,-1.3333333,447.3268,330.5404)"
         clip-path="url(#clipPath59)" />
    </g>
  </g>
</svg>
