<?xml version="1.0" encoding="UTF-8" standalone="no"?>
<!-- Created with Inkscape (http://www.inkscape.org/) -->

<svg
   version="1.1"
   id="svg6849"
   width="880"
   height="880"
   viewBox="0 0 880 880"
   sodipodi:docname="sailing-yacht-publicdomainvectors.org.svg"
   inkscape:version="1.2 (dc2aedaf03, 2022-05-15)"
   xmlns:inkscape="http://www.inkscape.org/namespaces/inkscape"
   xmlns:sodipodi="http://sodipodi.sourceforge.net/DTD/sodipodi-0.dtd"
   xmlns="http://www.w3.org/2000/svg"
   xmlns:svg="http://www.w3.org/2000/svg">
  <defs
     id="defs6853">
    <clipPath
       clipPathUnits="userSpaceOnUse"
       id="clipPath6865">
      <path
         d="M 0,660 H 660 V 0 H 0 Z"
         id="path6863" />
    </clipPath>
  </defs>
  <sodipodi:namedview
     id="namedview6851"
     pagecolor="#ffffff"
     bordercolor="#000000"
     borderopacity="0.25"
     inkscape:showpageshadow="2"
     inkscape:pageopacity="0.0"
     inkscape:pagecheckerboard="0"
     inkscape:deskcolor="#d1d1d1"
     showgrid="false"
     inkscape:zoom="0.95113636"
     inkscape:cx="441.05137"
     inkscape:cy="440.52569"
     inkscape:window-width="1920"
     inkscape:window-height="1017"
     inkscape:window-x="-8"
     inkscape:window-y="-8"
     inkscape:window-maximized="1"
     inkscape:current-layer="g6857">
    <inkscape:page
       x="0"
       y="0"
       id="page6855"
       width="880"
       height="880" />
  </sodipodi:namedview>
  <g
     id="g6857"
     inkscape:groupmode="layer"
     inkscape:label="Page 1"
     transform="matrix(1.3333333,0,0,-1.3333333,0,880)">
    <g
       id="g6859">
      <g
         id="g6861"
         clip-path="url(#clipPath6865)">
        <g
           id="g6867"
           transform="translate(323.6211,129.7588)">
          <path
             d="m 0,0 c 147.49,0 267.786,33.196 267.786,73.897 0,40.7 -120.296,73.898 -267.786,73.898 -147.492,0 -267.785,-33.198 -267.785,-73.898 C -267.785,33.196 -147.492,0 0,0"
             style="fill:#2da3ca;fill-opacity:1;fill-rule:evenodd;stroke:none"
             id="path6869" />
        </g>
        <g
           id="g6871"
           transform="translate(580.3662,182.6074)">
          <path
             d="m 0,0 c -32.849,-30.556 -135.354,-52.849 -256.745,-52.849 -47.216,0 -91.569,3.376 -130.085,9.296 -1.397,4.143 -2.131,8.382 -2.131,12.693 0,48.088 89.982,87.072 200.982,87.072 C -102.064,56.212 -28.753,32.855 0,0"
             style="fill:#1b8eb5;fill-opacity:1;fill-rule:evenodd;stroke:none"
             id="path6873" />
        </g>
        <g
           id="g6875"
           transform="translate(452.8418,255.9443)">
          <path
             d="m 0,0 c -0.395,-16.939 -4.984,-28.65 -17.402,-38.001 -58.891,-44.335 -139.689,-58.584 -209.332,-53.683 -23.088,1.625 -39.001,15.632 -55.558,37.035 C -188.959,-38.35 -93.333,-16.299 0,0"
             style="fill:#d5edf5;fill-opacity:1;fill-rule:evenodd;stroke:none"
             id="path6877" />
        </g>
        <g
           id="g6879"
           transform="translate(175.166,204.9307)">
          <path
             d="m 0,0 c 27.327,21.523 66.206,36.288 99.424,45.584 44.232,12.373 91.509,18.808 137.423,19.115 5.794,0.039 12.146,-0.752 17.84,-1.787 5.985,-1.09 22.06,-4.273 22.989,-11.898 0.272,-2.238 -0.78,-4.194 -2.295,-5.754 C 259.031,28.395 230.361,17.271 208.283,10.57 176.665,0.976 142.614,-4.591 109.721,-7.333 74.315,-10.287 36.308,-10.311 1.183,-4.582 l -5.799,0.946 z"
             style="fill:#ffffff;fill-opacity:1;fill-rule:evenodd;stroke:none"
             id="path6881" />
        </g>
        <g
           id="g6883"
           transform="translate(448.6904,251.9893)">
          <path
             d="M 0,0 C 9.195,9.483 -23.45,15.146 -36.661,15.056 -132.63,14.415 -226.918,-13.644 -271.926,-49.09 -181.726,-63.801 -41.066,-42.366 0,0"
             style="fill:#a66f39;fill-opacity:1;fill-rule:evenodd;stroke:none"
             id="path6885" />
        </g>
        <g
           id="g6887"
           transform="translate(186.2197,201.5166)">
          <path
             d="m 0,0 c 89.329,-11.706 220.02,9.117 261.175,49.194 -2.964,6.44 -26.27,10.148 -36.817,10.076 C 133.939,58.664 45.058,32.98 0,0"
             style="fill:#855628;fill-opacity:1;fill-rule:evenodd;stroke:none"
             id="path6889" />
        </g>
        <g
           id="g6891"
           transform="translate(251.4629,232.5195)">
          <path
             d="m 0,0 c 1.166,7.589 4.348,14.73 8.903,21.566 36.881,6.547 73.76,13.094 110.64,19.641 13.676,-2.228 27.349,-4.454 41.023,-6.682 5.194,-4.155 8.619,-9.553 9.448,-16.764 C 122.966,-2.178 75.235,-20.987 13.737,-17.083 9.424,-16.808 5.815,-14.937 3.107,-11.567 0.396,-8.2 -0.658,-4.272 0,0"
             style="fill:#faede1;fill-opacity:1;fill-rule:evenodd;stroke:none"
             id="path6893" />
        </g>
        <g
           id="g6895"
           transform="translate(260.3662,254.0859)">
          <path
             d="m 0,0 c -2.501,-4.029 -2.691,-7.083 1.831,-9.934 29.66,-18.709 116.248,5.943 149.832,22.893 -13.675,2.228 -27.348,4.454 -41.023,6.682 C 73.76,13.094 36.881,6.547 0,0"
             style="fill:#a66f39;fill-opacity:1;fill-rule:evenodd;stroke:none"
             id="path6897" />
        </g>
        <g
           id="g6899"
           transform="translate(345.2432,289.9648)">
          <path
             d="m 0,0 108.021,29.788 c 1.268,0.35 1.606,4.229 0.328,3.93 L 0.98,8.512 Z"
             style="fill:#c0c9cc;fill-opacity:1;fill-rule:evenodd;stroke:none"
             id="path6901" />
        </g>
        <g
           id="g6903"
           transform="translate(358.1221,230.9512)">
          <path
             d="m 0,0 c -9.516,-2.527 -19.498,-4.77 -30.051,-6.662 l -2.174,12.131 c 9.561,1.716 18.711,3.755 27.519,6.064 z M 31.816,10.02 C 26.828,8.2 21.738,6.461 16.532,4.811 12.711,3.601 8.815,2.434 4.839,1.321 L 0.141,12.838 c 4.301,1.193 8.521,2.45 12.668,3.763 4.898,1.551 9.671,3.179 14.336,4.868 z M 57.251,20.263 C 50.495,17.296 43.591,14.448 36.485,11.757 l -4.667,11.44 c 7.059,2.657 13.871,5.462 20.506,8.372 z"
             style="fill:#404e5c;fill-opacity:1;fill-rule:evenodd;stroke:none"
             id="path6905" />
        </g>
        <g
           id="g6907"
           transform="translate(348.4717,259.0283)">
          <path
             d="m 0,0 46.91,351.876 c 0.098,0.735 -1.982,1.443 -2.108,0.714 L -15.45,0.629 C -16.334,-4.542 -0.692,-5.204 0,0"
             style="fill:#cfd4d6;fill-opacity:1;fill-rule:evenodd;stroke:none"
             id="path6909" />
        </g>
        <g
           id="g6911"
           transform="translate(389.8662,591.7007)">
          <path
             d="m 0,0 -219.316,-390.406 28.005,44.813 c 21.043,-15.535 122.522,-18.835 130.522,23.561 z"
             style="fill:#a3b5c7;fill-opacity:1;fill-rule:evenodd;stroke:none"
             id="path6913" />
        </g>
        <g
           id="g6915"
           transform="translate(389.8662,591.7007)">
          <path
             d="m 0,0 -194.212,-344.159 2.901,-1.434 c 7.452,-5.5 24.991,-9.464 44.895,-10.412 z"
             style="fill:#b6c6d4;fill-opacity:1;fill-rule:evenodd;stroke:none"
             id="path6917" />
        </g>
        <g
           id="g6919"
           transform="translate(393.0654,610.3828)">
          <path
             d="m 0,0 -18.937,-4.047 2.783,7.038 -27.333,-12.193 20.377,3.683 -2.617,-9.493 23.964,4.72 2.591,-0.345 1.364,10.221 z"
             style="fill:#990000;fill-opacity:1;fill-rule:evenodd;stroke:none"
             id="path6921" />
        </g>
        <g
           id="g6923"
           transform="translate(392.5752,589.8384)">
          <path
             d="m 0,0 c 56.725,-77.718 79.359,-165.743 61.017,-266.156 l 0.982,22.995 c -28.205,-19.378 -57.447,-27.325 -87.397,-27.498 l -13.205,-18.882 12.386,22.32 z"
             style="fill:#a3b5c7;fill-opacity:1;fill-rule:evenodd;stroke:none"
             id="path6925" />
        </g>
        <g
           id="g6927"
           transform="translate(405.9365,324.1475)">
          <path
             d="m 0,0 c -12.77,-3.337 -25.696,-4.893 -38.76,-4.968 l -13.204,-18.883 12.386,22.321 26.217,267.221 C 7.864,190.705 15.436,104.663 0,0"
             style="fill:#95a7ba;fill-opacity:1;fill-rule:evenodd;stroke:none"
             id="path6929" />
        </g>
      </g>
    </g>
  </g>
</svg>
